%TF.GenerationSoftware,KiCad,Pcbnew,(6.0.4)*%
%TF.CreationDate,2022-11-12T18:53:05-06:00*%
%TF.ProjectId,Signalyzer,5369676e-616c-4797-9a65-722e6b696361,rev?*%
%TF.SameCoordinates,Original*%
%TF.FileFunction,Legend,Bot*%
%TF.FilePolarity,Positive*%
%FSLAX46Y46*%
G04 Gerber Fmt 4.6, Leading zero omitted, Abs format (unit mm)*
G04 Created by KiCad (PCBNEW (6.0.4)) date 2022-11-12 18:53:05*
%MOMM*%
%LPD*%
G01*
G04 APERTURE LIST*
%ADD10C,0.300000*%
%ADD11C,0.150000*%
G04 APERTURE END LIST*
D10*
X169303168Y-122000000D02*
G75*
G03*
X169303168Y-122000000I-3553168J0D01*
G01*
X119356336Y-122000000D02*
G75*
G03*
X119356336Y-122000000I-3553168J0D01*
G01*
X169356336Y-62000000D02*
G75*
G03*
X169356336Y-62000000I-3553168J0D01*
G01*
X119356336Y-62000000D02*
G75*
G03*
X119356336Y-62000000I-3553168J0D01*
G01*
X126428571Y-114107142D02*
X126214285Y-114178571D01*
X125857142Y-114178571D01*
X125714285Y-114107142D01*
X125642857Y-114035714D01*
X125571428Y-113892857D01*
X125571428Y-113750000D01*
X125642857Y-113607142D01*
X125714285Y-113535714D01*
X125857142Y-113464285D01*
X126142857Y-113392857D01*
X126285714Y-113321428D01*
X126357142Y-113250000D01*
X126428571Y-113107142D01*
X126428571Y-112964285D01*
X126357142Y-112821428D01*
X126285714Y-112750000D01*
X126142857Y-112678571D01*
X125785714Y-112678571D01*
X125571428Y-112750000D01*
X151428571Y-114107142D02*
X151214285Y-114178571D01*
X150857142Y-114178571D01*
X150714285Y-114107142D01*
X150642857Y-114035714D01*
X150571428Y-113892857D01*
X150571428Y-113750000D01*
X150642857Y-113607142D01*
X150714285Y-113535714D01*
X150857142Y-113464285D01*
X151142857Y-113392857D01*
X151285714Y-113321428D01*
X151357142Y-113250000D01*
X151428571Y-113107142D01*
X151428571Y-112964285D01*
X151357142Y-112821428D01*
X151285714Y-112750000D01*
X151142857Y-112678571D01*
X150785714Y-112678571D01*
X150571428Y-112750000D01*
X132857142Y-112750000D02*
X133000000Y-112678571D01*
X133214285Y-112678571D01*
X133428571Y-112750000D01*
X133571428Y-112892857D01*
X133642857Y-113035714D01*
X133714285Y-113321428D01*
X133714285Y-113535714D01*
X133642857Y-113821428D01*
X133571428Y-113964285D01*
X133428571Y-114107142D01*
X133214285Y-114178571D01*
X133071428Y-114178571D01*
X132857142Y-114107142D01*
X132785714Y-114035714D01*
X132785714Y-113535714D01*
X133071428Y-113535714D01*
X157857142Y-112750000D02*
X158000000Y-112678571D01*
X158214285Y-112678571D01*
X158428571Y-112750000D01*
X158571428Y-112892857D01*
X158642857Y-113035714D01*
X158714285Y-113321428D01*
X158714285Y-113535714D01*
X158642857Y-113821428D01*
X158571428Y-113964285D01*
X158428571Y-114107142D01*
X158214285Y-114178571D01*
X158071428Y-114178571D01*
X157857142Y-114107142D01*
X157785714Y-114035714D01*
X157785714Y-113535714D01*
X158071428Y-113535714D01*
D11*
X130559523Y-125952380D02*
X131130952Y-125952380D01*
X130845238Y-125952380D02*
X130845238Y-124952380D01*
X130940476Y-125095238D01*
X131035714Y-125190476D01*
X131130952Y-125238095D01*
X129369047Y-125952380D02*
X129369047Y-124952380D01*
X129035714Y-125666666D01*
X128702380Y-124952380D01*
X128702380Y-125952380D01*
X128035714Y-124952380D02*
X127845238Y-124952380D01*
X127750000Y-125000000D01*
X127654761Y-125095238D01*
X127607142Y-125285714D01*
X127607142Y-125619047D01*
X127654761Y-125809523D01*
X127750000Y-125904761D01*
X127845238Y-125952380D01*
X128035714Y-125952380D01*
X128130952Y-125904761D01*
X128226190Y-125809523D01*
X128273809Y-125619047D01*
X128273809Y-125285714D01*
X128226190Y-125095238D01*
X128130952Y-125000000D01*
X128035714Y-124952380D01*
X127178571Y-125952380D02*
X127178571Y-124952380D01*
X126750000Y-125952380D02*
X126750000Y-125428571D01*
X126797619Y-125333333D01*
X126892857Y-125285714D01*
X127035714Y-125285714D01*
X127130952Y-125333333D01*
X127178571Y-125380952D01*
X126273809Y-125952380D02*
X126273809Y-125285714D01*
X126273809Y-125380952D02*
X126226190Y-125333333D01*
X126130952Y-125285714D01*
X125988095Y-125285714D01*
X125892857Y-125333333D01*
X125845238Y-125428571D01*
X125845238Y-125952380D01*
X125845238Y-125428571D02*
X125797619Y-125333333D01*
X125702380Y-125285714D01*
X125559523Y-125285714D01*
X125464285Y-125333333D01*
X125416666Y-125428571D01*
X125416666Y-125952380D01*
X155511904Y-124702380D02*
X155988095Y-124702380D01*
X156035714Y-125178571D01*
X155988095Y-125130952D01*
X155892857Y-125083333D01*
X155654761Y-125083333D01*
X155559523Y-125130952D01*
X155511904Y-125178571D01*
X155464285Y-125273809D01*
X155464285Y-125511904D01*
X155511904Y-125607142D01*
X155559523Y-125654761D01*
X155654761Y-125702380D01*
X155892857Y-125702380D01*
X155988095Y-125654761D01*
X156035714Y-125607142D01*
X154845238Y-124702380D02*
X154750000Y-124702380D01*
X154654761Y-124750000D01*
X154607142Y-124797619D01*
X154559523Y-124892857D01*
X154511904Y-125083333D01*
X154511904Y-125321428D01*
X154559523Y-125511904D01*
X154607142Y-125607142D01*
X154654761Y-125654761D01*
X154750000Y-125702380D01*
X154845238Y-125702380D01*
X154940476Y-125654761D01*
X154988095Y-125607142D01*
X155035714Y-125511904D01*
X155083333Y-125321428D01*
X155083333Y-125083333D01*
X155035714Y-124892857D01*
X154988095Y-124797619D01*
X154940476Y-124750000D01*
X154845238Y-124702380D01*
X153130952Y-124702380D02*
X152940476Y-124702380D01*
X152845238Y-124750000D01*
X152750000Y-124845238D01*
X152702380Y-125035714D01*
X152702380Y-125369047D01*
X152750000Y-125559523D01*
X152845238Y-125654761D01*
X152940476Y-125702380D01*
X153130952Y-125702380D01*
X153226190Y-125654761D01*
X153321428Y-125559523D01*
X153369047Y-125369047D01*
X153369047Y-125035714D01*
X153321428Y-124845238D01*
X153226190Y-124750000D01*
X153130952Y-124702380D01*
X152273809Y-125702380D02*
X152273809Y-124702380D01*
X151845238Y-125702380D02*
X151845238Y-125178571D01*
X151892857Y-125083333D01*
X151988095Y-125035714D01*
X152130952Y-125035714D01*
X152226190Y-125083333D01*
X152273809Y-125130952D01*
X151369047Y-125702380D02*
X151369047Y-125035714D01*
X151369047Y-125130952D02*
X151321428Y-125083333D01*
X151226190Y-125035714D01*
X151083333Y-125035714D01*
X150988095Y-125083333D01*
X150940476Y-125178571D01*
X150940476Y-125702380D01*
X150940476Y-125178571D02*
X150892857Y-125083333D01*
X150797619Y-125035714D01*
X150654761Y-125035714D01*
X150559523Y-125083333D01*
X150511904Y-125178571D01*
X150511904Y-125702380D01*
M02*
