%TF.GenerationSoftware,KiCad,Pcbnew,(6.0.4)*%
%TF.CreationDate,2022-11-12T18:53:05-06:00*%
%TF.ProjectId,Signalyzer,5369676e-616c-4797-9a65-722e6b696361,rev?*%
%TF.SameCoordinates,Original*%
%TF.FileFunction,Copper,L3,Inr*%
%TF.FilePolarity,Positive*%
%FSLAX46Y46*%
G04 Gerber Fmt 4.6, Leading zero omitted, Abs format (unit mm)*
G04 Created by KiCad (PCBNEW (6.0.4)) date 2022-11-12 18:53:05*
%MOMM*%
%LPD*%
G01*
G04 APERTURE LIST*
%TA.AperFunction,ComponentPad*%
%ADD10O,2.100000X1.000000*%
%TD*%
%TA.AperFunction,ComponentPad*%
%ADD11O,1.600000X1.000000*%
%TD*%
%TA.AperFunction,ComponentPad*%
%ADD12O,1.600000X2.500000*%
%TD*%
%TA.AperFunction,ComponentPad*%
%ADD13O,3.500000X7.000000*%
%TD*%
%TA.AperFunction,ViaPad*%
%ADD14C,0.800000*%
%TD*%
%TA.AperFunction,ViaPad*%
%ADD15C,0.700000*%
%TD*%
G04 APERTURE END LIST*
D10*
%TO.N,unconnected-(J200-PadS1)*%
%TO.C,J200*%
X165120000Y-83970000D03*
D11*
X169300000Y-75330000D03*
X169300000Y-83970000D03*
D10*
X165120000Y-75330000D03*
%TD*%
D12*
%TO.N,/DAC/OUT*%
%TO.C,J400*%
X153250000Y-113600000D03*
D13*
%TO.N,GND*%
X148170000Y-118680000D03*
D12*
X155790000Y-113600000D03*
D13*
X158330000Y-118680000D03*
%TD*%
D12*
%TO.N,/ADC/IN*%
%TO.C,J300*%
X128250000Y-113500000D03*
%TO.N,GND*%
X130790000Y-113500000D03*
D13*
X133330000Y-118580000D03*
X123170000Y-118580000D03*
%TD*%
D14*
%TO.N,GND*%
X130750000Y-92000000D03*
X133250000Y-92000000D03*
X135750000Y-92000000D03*
X138250000Y-92000000D03*
X115750000Y-94500000D03*
X115750000Y-97000000D03*
X115750000Y-99500000D03*
X145750000Y-89500000D03*
X143250000Y-89500000D03*
X140750000Y-89500000D03*
X155750000Y-97000000D03*
X155750000Y-99500000D03*
X155750000Y-102000000D03*
X165750000Y-94500000D03*
X160750000Y-94500000D03*
X160750000Y-104500000D03*
X163250000Y-104500000D03*
X165750000Y-104500000D03*
X158250000Y-104500000D03*
X158250000Y-102000000D03*
X158250000Y-99500000D03*
X158250000Y-97000000D03*
X158250000Y-94500000D03*
X158250000Y-92000000D03*
X158250000Y-89500000D03*
X160750000Y-92000000D03*
X163250000Y-92000000D03*
X165750000Y-92000000D03*
X165750000Y-89500000D03*
X163250000Y-89500000D03*
X160750000Y-89500000D03*
X160750000Y-87000000D03*
X163250000Y-87000000D03*
X165750000Y-87000000D03*
X168250000Y-87000000D03*
X168250000Y-89500000D03*
X168250000Y-92000000D03*
X168250000Y-94500000D03*
X168250000Y-97000000D03*
X168250000Y-99500000D03*
X168250000Y-102000000D03*
X168250000Y-104500000D03*
X155750000Y-77000000D03*
X158250000Y-77000000D03*
X160750000Y-74500000D03*
X158250000Y-74500000D03*
X160750000Y-69500000D03*
X160750000Y-72000000D03*
X163250000Y-72000000D03*
X165750000Y-72000000D03*
X168250000Y-72000000D03*
X168250000Y-69500000D03*
X168250000Y-67000000D03*
X165750000Y-67000000D03*
X163250000Y-67000000D03*
X160750000Y-67000000D03*
X160750000Y-64500000D03*
X158250000Y-64500000D03*
X150750000Y-64500000D03*
X148250000Y-64500000D03*
X145750000Y-64500000D03*
X143250000Y-62000000D03*
X145750000Y-62000000D03*
X148250000Y-62000000D03*
X150750000Y-62000000D03*
X153250000Y-62000000D03*
X155750000Y-62000000D03*
X158250000Y-62000000D03*
X160750000Y-62000000D03*
X160750000Y-59500000D03*
X158250000Y-59500000D03*
X143250000Y-59500000D03*
X140750000Y-59500000D03*
X138250000Y-59500000D03*
X135750000Y-62000000D03*
X138250000Y-62000000D03*
X140750000Y-64500000D03*
X138250000Y-64500000D03*
X135750000Y-64500000D03*
X123250000Y-74500000D03*
X120750000Y-74500000D03*
X118250000Y-74500000D03*
X150750000Y-102000000D03*
X150750000Y-99500000D03*
X150750000Y-97000000D03*
X150750000Y-94500000D03*
X148250000Y-94500000D03*
X148250000Y-97000000D03*
X148250000Y-99500000D03*
X148250000Y-102000000D03*
X145750000Y-99500000D03*
X145750000Y-97000000D03*
X145750000Y-94500000D03*
X135750000Y-97000000D03*
X138250000Y-94500000D03*
X135750000Y-94500000D03*
X133250000Y-94500000D03*
X130750000Y-94500000D03*
X120750000Y-84500000D03*
X118250000Y-84500000D03*
X118250000Y-82000000D03*
X115750000Y-82000000D03*
X115750000Y-84500000D03*
X115750000Y-89500000D03*
X115750000Y-92000000D03*
X115750000Y-102000000D03*
X125750000Y-109500000D03*
X135750000Y-107000000D03*
X143250000Y-109500000D03*
X145750000Y-109500000D03*
X148250000Y-109500000D03*
X150750000Y-109500000D03*
X158250000Y-109500000D03*
X160750000Y-109500000D03*
X163250000Y-109500000D03*
X165750000Y-109500000D03*
X168250000Y-109500000D03*
X168250000Y-112000000D03*
X165750000Y-112000000D03*
X165750000Y-114500000D03*
X168250000Y-114500000D03*
X168250000Y-117000000D03*
X165750000Y-117000000D03*
X163250000Y-117000000D03*
X163250000Y-114500000D03*
X163250000Y-112000000D03*
X158250000Y-112000000D03*
X148250000Y-112000000D03*
X150750000Y-112000000D03*
X150750000Y-117000000D03*
X153250000Y-117000000D03*
X155750000Y-117000000D03*
X155750000Y-119500000D03*
X153250000Y-119500000D03*
X150750000Y-119500000D03*
X150750000Y-122000000D03*
X153250000Y-122000000D03*
X155750000Y-122000000D03*
X158250000Y-124500000D03*
X155750000Y-124500000D03*
X153250000Y-124500000D03*
X150750000Y-124500000D03*
X148250000Y-124500000D03*
X140750000Y-124500000D03*
X143250000Y-124500000D03*
X143250000Y-122000000D03*
X140750000Y-122000000D03*
X140750000Y-119500000D03*
X143250000Y-119500000D03*
X143250000Y-117000000D03*
X140750000Y-117000000D03*
X140750000Y-114500000D03*
X143250000Y-114500000D03*
X143250000Y-112000000D03*
X140750000Y-112000000D03*
X133250000Y-112000000D03*
X133250000Y-109500000D03*
X135750000Y-109500000D03*
X138250000Y-112000000D03*
X138250000Y-114500000D03*
X138250000Y-117000000D03*
X138250000Y-119500000D03*
X138250000Y-122000000D03*
X138250000Y-124500000D03*
X133250000Y-124500000D03*
X123250000Y-124500000D03*
X125750000Y-124500000D03*
X128250000Y-124500000D03*
X130750000Y-124500000D03*
X130750000Y-122000000D03*
X128250000Y-122000000D03*
X125750000Y-122000000D03*
X125750000Y-119500000D03*
X128250000Y-119500000D03*
X130750000Y-119500000D03*
X130750000Y-117000000D03*
X128250000Y-117000000D03*
X125750000Y-117000000D03*
X125750000Y-112000000D03*
X123250000Y-112000000D03*
X120750000Y-109500000D03*
X123250000Y-109500000D03*
X123250000Y-107000000D03*
X120750000Y-107000000D03*
X115750000Y-104500000D03*
X118250000Y-104500000D03*
X118250000Y-107000000D03*
X115750000Y-107000000D03*
X115750000Y-109500000D03*
X118250000Y-109500000D03*
X118250000Y-112000000D03*
X115750000Y-112000000D03*
X115750000Y-114500000D03*
X118250000Y-114500000D03*
X118250000Y-117000000D03*
X115750000Y-117000000D03*
X113250000Y-117000000D03*
X113250000Y-114500000D03*
X113250000Y-112000000D03*
X113250000Y-109500000D03*
X113250000Y-107000000D03*
X113250000Y-104500000D03*
X113250000Y-102000000D03*
X113250000Y-99500000D03*
X113250000Y-97000000D03*
X113250000Y-94500000D03*
X113250000Y-92000000D03*
X113250000Y-89500000D03*
X113250000Y-87000000D03*
X113250000Y-84500000D03*
X113250000Y-82000000D03*
X113250000Y-79500000D03*
X113250000Y-77000000D03*
X113250000Y-74500000D03*
X113250000Y-72000000D03*
X113250000Y-67000000D03*
X113250000Y-69500000D03*
X115750000Y-69500000D03*
X115750000Y-67000000D03*
X118250000Y-67000000D03*
X118250000Y-69500000D03*
X120750000Y-69500000D03*
X120750000Y-67000000D03*
X125750000Y-64500000D03*
X123250000Y-64500000D03*
X120750000Y-64500000D03*
X120750000Y-62000000D03*
X125750000Y-59500000D03*
X123250000Y-59500000D03*
X120750000Y-59500000D03*
D15*
X126800000Y-87800000D03*
X145725000Y-85225000D03*
X120450000Y-86825000D03*
X114250000Y-73500000D03*
X141950000Y-91075000D03*
%TO.N,+3V3*%
X158025000Y-68225000D03*
%TO.N,GND*%
X116250000Y-87800000D03*
X143050000Y-82300000D03*
%TO.N,+3V3*%
X144750000Y-85200000D03*
X136050000Y-85500000D03*
X131750000Y-85000000D03*
X149750000Y-76200000D03*
X146750000Y-75300000D03*
%TO.N,+5V*%
X141950000Y-92200000D03*
X120450000Y-87800000D03*
%TO.N,+3V3*%
X125750000Y-87800000D03*
X115250000Y-73500000D03*
%TO.N,GND*%
X137950000Y-77800000D03*
%TO.N,/MCU/NRST*%
X137950000Y-79000000D03*
X136050000Y-75000000D03*
%TO.N,GND*%
X158450000Y-67100000D03*
%TO.N,+3V3*%
X136450000Y-60900000D03*
X137775000Y-72350000D03*
X158900000Y-68225000D03*
%TO.N,GND*%
X164025000Y-69875000D03*
X152750000Y-76800000D03*
X155450000Y-80700000D03*
%TO.N,+5V*%
X153750000Y-76800000D03*
X156450000Y-81100000D03*
%TO.N,GND*%
X154250000Y-73900000D03*
X157150000Y-70100000D03*
%TO.N,+3V3*%
X157225000Y-69025000D03*
X154250000Y-72800000D03*
%TO.N,GND*%
X155850000Y-70800000D03*
X154950000Y-70800000D03*
X152350000Y-69000000D03*
X151250000Y-69000000D03*
X148850000Y-70900000D03*
X149150000Y-71700000D03*
X130950000Y-89350000D03*
X130350000Y-97600000D03*
X118550000Y-100250000D03*
X155850000Y-93250000D03*
X149681250Y-105450000D03*
X153100000Y-96250000D03*
X162100000Y-79200000D03*
X129550000Y-109700000D03*
X132150000Y-67350000D03*
X165450000Y-86000000D03*
X124250000Y-95450000D03*
X143450000Y-77100000D03*
X123950000Y-90900000D03*
X126450000Y-70350000D03*
X134200000Y-75000000D03*
X150750000Y-88300000D03*
X133150000Y-100800000D03*
X155200000Y-105450000D03*
X161479788Y-77235020D03*
X131100000Y-58100000D03*
X126750000Y-81700000D03*
X141300000Y-78250000D03*
X132450000Y-85900000D03*
X129850000Y-58100000D03*
X127300000Y-58100000D03*
X125450000Y-107200000D03*
X152250000Y-84500000D03*
X157450000Y-86250000D03*
X128550000Y-67350000D03*
X155300000Y-109400000D03*
X163300000Y-83700000D03*
X125100000Y-67350000D03*
X121250000Y-91500000D03*
X139162500Y-96937500D03*
X140900000Y-72600000D03*
X121750000Y-103450000D03*
X135550000Y-67350000D03*
X163250000Y-75600000D03*
X138262500Y-96937500D03*
X126750000Y-80400000D03*
X126750000Y-83100000D03*
X149650000Y-86949503D03*
X154750000Y-97400000D03*
X142750000Y-104500000D03*
X165500000Y-73250000D03*
X162950000Y-82900000D03*
X149650006Y-84398352D03*
X129350000Y-77250000D03*
X137362500Y-97837500D03*
X129400000Y-102700000D03*
X132250000Y-79800000D03*
X139750000Y-78250000D03*
X134100000Y-79800000D03*
X126800000Y-74350000D03*
X159450000Y-86250000D03*
X139162500Y-97837500D03*
X138500000Y-76600000D03*
X122750000Y-95000000D03*
X138262500Y-97837500D03*
X150400000Y-93150000D03*
X154650000Y-82700000D03*
X123300000Y-102750000D03*
X130400000Y-105900000D03*
X137362500Y-96937500D03*
X117200000Y-74800000D03*
X162900000Y-76400000D03*
X138550000Y-104500000D03*
X134850000Y-59700000D03*
X132250000Y-106000000D03*
X138350000Y-107150000D03*
X118550000Y-99400000D03*
X124250000Y-94600000D03*
X153731250Y-100700000D03*
X127500000Y-98450000D03*
X154050000Y-105450000D03*
X132350000Y-99100000D03*
X143200000Y-78000000D03*
X128400000Y-97200000D03*
%TO.N,+3.3VA*%
X131350000Y-97600000D03*
X131350000Y-99100000D03*
X121250000Y-92500000D03*
%TO.N,SPI2_NSS*%
X151850000Y-83650000D03*
X154650000Y-83650000D03*
%TO.N,SPI1_NSS*%
X131075000Y-88325000D03*
X133150000Y-86500000D03*
%TO.N,/MCU/TIM4_CH3*%
X127700000Y-81050000D03*
X138750000Y-78250000D03*
%TO.N,/MCU/TIM4_CH1*%
X142300000Y-78250000D03*
X127700000Y-83750000D03*
%TO.N,/MCU/TIM4_CH2*%
X140500000Y-77600000D03*
X127700000Y-82400000D03*
%TO.N,DAC_NCLR*%
X154850000Y-93850000D03*
X149650000Y-86100000D03*
%TO.N,DAC_NLDAC*%
X154850000Y-92700000D03*
X149647009Y-85247849D03*
%TD*%
%TA.AperFunction,Conductor*%
%TO.N,GND*%
G36*
X165730059Y-57402334D02*
G01*
X165750000Y-57405492D01*
X165761580Y-57403658D01*
X165764605Y-57403658D01*
X165789694Y-57402233D01*
X166144380Y-57417719D01*
X166157317Y-57418850D01*
X166498302Y-57463743D01*
X166542246Y-57469528D01*
X166555046Y-57471785D01*
X166934086Y-57555816D01*
X166946635Y-57559178D01*
X167316923Y-57675929D01*
X167329129Y-57680372D01*
X167687817Y-57828945D01*
X167699598Y-57834439D01*
X168043986Y-58013717D01*
X168055243Y-58020216D01*
X168382672Y-58228811D01*
X168393320Y-58236267D01*
X168701348Y-58472626D01*
X168711303Y-58480979D01*
X168997557Y-58743281D01*
X169006719Y-58752443D01*
X169269020Y-59038695D01*
X169277374Y-59048652D01*
X169513733Y-59356680D01*
X169521189Y-59367328D01*
X169729784Y-59694757D01*
X169736283Y-59706014D01*
X169915561Y-60050402D01*
X169921054Y-60062181D01*
X170023988Y-60310685D01*
X170069626Y-60420866D01*
X170074071Y-60433077D01*
X170166384Y-60725856D01*
X170190821Y-60803361D01*
X170194184Y-60815914D01*
X170212325Y-60897741D01*
X170278215Y-61194954D01*
X170280472Y-61207754D01*
X170328707Y-61574125D01*
X170331149Y-61592676D01*
X170332281Y-61605620D01*
X170333663Y-61637250D01*
X170347767Y-61960302D01*
X170346342Y-61985395D01*
X170346342Y-61988420D01*
X170344508Y-62000000D01*
X170346342Y-62011579D01*
X170347666Y-62019938D01*
X170349500Y-62043247D01*
X170349500Y-74464840D01*
X170329538Y-74539340D01*
X170275000Y-74593878D01*
X170200500Y-74613840D01*
X170126000Y-74593878D01*
X170040940Y-74544769D01*
X169968284Y-74502821D01*
X169788256Y-74444326D01*
X169780489Y-74443510D01*
X169780486Y-74443509D01*
X169710884Y-74436194D01*
X169647192Y-74429500D01*
X168952808Y-74429500D01*
X168889116Y-74436194D01*
X168819514Y-74443509D01*
X168819511Y-74443510D01*
X168811744Y-74444326D01*
X168631716Y-74502821D01*
X168570883Y-74537943D01*
X168474547Y-74593562D01*
X168474544Y-74593564D01*
X168467784Y-74597467D01*
X168461984Y-74602689D01*
X168461979Y-74602693D01*
X168401456Y-74657189D01*
X168327112Y-74724129D01*
X168215849Y-74877270D01*
X168138856Y-75050197D01*
X168137233Y-75057833D01*
X168137232Y-75057836D01*
X168119564Y-75140960D01*
X168099500Y-75235354D01*
X168099500Y-75424646D01*
X168101124Y-75432286D01*
X168101124Y-75432287D01*
X168137108Y-75601578D01*
X168138856Y-75609803D01*
X168215849Y-75782730D01*
X168220438Y-75789046D01*
X168280720Y-75872017D01*
X168327112Y-75935871D01*
X168372824Y-75977030D01*
X168461979Y-76057307D01*
X168461984Y-76057311D01*
X168467784Y-76062533D01*
X168474544Y-76066436D01*
X168474547Y-76066438D01*
X168537244Y-76102635D01*
X168631716Y-76157179D01*
X168705626Y-76181194D01*
X168798609Y-76211406D01*
X168811744Y-76215674D01*
X168819511Y-76216490D01*
X168819514Y-76216491D01*
X168889116Y-76223806D01*
X168952808Y-76230500D01*
X169647192Y-76230500D01*
X169710884Y-76223806D01*
X169780486Y-76216491D01*
X169780489Y-76216490D01*
X169788256Y-76215674D01*
X169801392Y-76211406D01*
X169894374Y-76181194D01*
X169968284Y-76157179D01*
X170085675Y-76089403D01*
X170126000Y-76066122D01*
X170200500Y-76046160D01*
X170275000Y-76066122D01*
X170329538Y-76120660D01*
X170349500Y-76195160D01*
X170349500Y-83104840D01*
X170329538Y-83179340D01*
X170275000Y-83233878D01*
X170200500Y-83253840D01*
X170126000Y-83233878D01*
X170085675Y-83210597D01*
X169968284Y-83142821D01*
X169788256Y-83084326D01*
X169780489Y-83083510D01*
X169780486Y-83083509D01*
X169706135Y-83075695D01*
X169647192Y-83069500D01*
X168952808Y-83069500D01*
X168893865Y-83075695D01*
X168819514Y-83083509D01*
X168819511Y-83083510D01*
X168811744Y-83084326D01*
X168631716Y-83142821D01*
X168556872Y-83186032D01*
X168474547Y-83233562D01*
X168474544Y-83233564D01*
X168467784Y-83237467D01*
X168461984Y-83242689D01*
X168461979Y-83242693D01*
X168419570Y-83280879D01*
X168327112Y-83364129D01*
X168322521Y-83370447D01*
X168322520Y-83370449D01*
X168278140Y-83431534D01*
X168215849Y-83517270D01*
X168138856Y-83690197D01*
X168137233Y-83697833D01*
X168137232Y-83697836D01*
X168112345Y-83814923D01*
X168099500Y-83875354D01*
X168099500Y-84064646D01*
X168101124Y-84072286D01*
X168101124Y-84072287D01*
X168133783Y-84225934D01*
X168138856Y-84249803D01*
X168215849Y-84422730D01*
X168226793Y-84437793D01*
X168294424Y-84530879D01*
X168327112Y-84575871D01*
X168359303Y-84604856D01*
X168461979Y-84697307D01*
X168461984Y-84697311D01*
X168467784Y-84702533D01*
X168474544Y-84706436D01*
X168474547Y-84706438D01*
X168506646Y-84724970D01*
X168631716Y-84797179D01*
X168811744Y-84855674D01*
X168819511Y-84856490D01*
X168819514Y-84856491D01*
X168889116Y-84863806D01*
X168952808Y-84870500D01*
X169647192Y-84870500D01*
X169710884Y-84863806D01*
X169780486Y-84856491D01*
X169780489Y-84856490D01*
X169788256Y-84855674D01*
X169968284Y-84797179D01*
X170107448Y-84716833D01*
X170126000Y-84706122D01*
X170200500Y-84686160D01*
X170275000Y-84706122D01*
X170329538Y-84760660D01*
X170349500Y-84835160D01*
X170349500Y-121956753D01*
X170347666Y-121980059D01*
X170344508Y-122000000D01*
X170346342Y-122011580D01*
X170346342Y-122014605D01*
X170347767Y-122039694D01*
X170333791Y-122359808D01*
X170332282Y-122394374D01*
X170331150Y-122407317D01*
X170302580Y-122624322D01*
X170280472Y-122792246D01*
X170278215Y-122805046D01*
X170194185Y-123184083D01*
X170190822Y-123196635D01*
X170099373Y-123486676D01*
X170074072Y-123566919D01*
X170069626Y-123579134D01*
X169921055Y-123937817D01*
X169915561Y-123949598D01*
X169736283Y-124293986D01*
X169729784Y-124305243D01*
X169521189Y-124632672D01*
X169513733Y-124643320D01*
X169277374Y-124951348D01*
X169269021Y-124961303D01*
X169006719Y-125247557D01*
X168997557Y-125256719D01*
X168711305Y-125519020D01*
X168701348Y-125527374D01*
X168393320Y-125763733D01*
X168382672Y-125771189D01*
X168055243Y-125979784D01*
X168043986Y-125986283D01*
X167699598Y-126165561D01*
X167687819Y-126171054D01*
X167329129Y-126319628D01*
X167316923Y-126324071D01*
X166946635Y-126440822D01*
X166934086Y-126444184D01*
X166609089Y-126516234D01*
X166555046Y-126528215D01*
X166542245Y-126530472D01*
X166157317Y-126581150D01*
X166144380Y-126582281D01*
X165789694Y-126597767D01*
X165764605Y-126596342D01*
X165761580Y-126596342D01*
X165750000Y-126594508D01*
X165730059Y-126597666D01*
X165706753Y-126599500D01*
X115793247Y-126599500D01*
X115769941Y-126597666D01*
X115750000Y-126594508D01*
X115738420Y-126596342D01*
X115735395Y-126596342D01*
X115710306Y-126597767D01*
X115355620Y-126582281D01*
X115342683Y-126581150D01*
X114957755Y-126530472D01*
X114944954Y-126528215D01*
X114890911Y-126516234D01*
X114565914Y-126444184D01*
X114553365Y-126440822D01*
X114183077Y-126324071D01*
X114170871Y-126319628D01*
X113812181Y-126171054D01*
X113800402Y-126165561D01*
X113456014Y-125986283D01*
X113444757Y-125979784D01*
X113117328Y-125771189D01*
X113106680Y-125763733D01*
X112798652Y-125527374D01*
X112788695Y-125519020D01*
X112502443Y-125256719D01*
X112493281Y-125247557D01*
X112230979Y-124961303D01*
X112222626Y-124951348D01*
X111986267Y-124643320D01*
X111978811Y-124632672D01*
X111770216Y-124305243D01*
X111763717Y-124293986D01*
X111584439Y-123949598D01*
X111578945Y-123937817D01*
X111430374Y-123579134D01*
X111425928Y-123566919D01*
X111400628Y-123486676D01*
X111309178Y-123196635D01*
X111305815Y-123184083D01*
X111221785Y-122805046D01*
X111219528Y-122792246D01*
X111197420Y-122624322D01*
X111168850Y-122407317D01*
X111167718Y-122394374D01*
X111166209Y-122359808D01*
X111152233Y-122039694D01*
X111153658Y-122014605D01*
X111153658Y-122011580D01*
X111155492Y-122000000D01*
X111152334Y-121980059D01*
X111151424Y-121968497D01*
X113744637Y-121968497D01*
X113760205Y-122251370D01*
X113761233Y-122256538D01*
X113810070Y-122502056D01*
X113815474Y-122529226D01*
X113817222Y-122534204D01*
X113817223Y-122534207D01*
X113828638Y-122566712D01*
X113909342Y-122796524D01*
X113911764Y-122801187D01*
X113911766Y-122801191D01*
X114037510Y-123043259D01*
X114037514Y-123043266D01*
X114039936Y-123047928D01*
X114204651Y-123278424D01*
X114208281Y-123282230D01*
X114208285Y-123282234D01*
X114327701Y-123407414D01*
X114400199Y-123483412D01*
X114622680Y-123658801D01*
X114682235Y-123693393D01*
X114863096Y-123798446D01*
X114863101Y-123798449D01*
X114867654Y-123801093D01*
X115130232Y-123907448D01*
X115252489Y-123937817D01*
X115400055Y-123974473D01*
X115400059Y-123974474D01*
X115405177Y-123975745D01*
X115410418Y-123976282D01*
X115410424Y-123976283D01*
X115643003Y-124000112D01*
X115646790Y-124000500D01*
X115822170Y-124000500D01*
X116032593Y-123985601D01*
X116309547Y-123925975D01*
X116575337Y-123827920D01*
X116579967Y-123825422D01*
X116579971Y-123825420D01*
X116820029Y-123695892D01*
X116820032Y-123695890D01*
X116824660Y-123693393D01*
X117052540Y-123525078D01*
X117056289Y-123521387D01*
X117056293Y-123521384D01*
X117152045Y-123427123D01*
X117254430Y-123326334D01*
X117353411Y-123196639D01*
X117423107Y-123105315D01*
X117426304Y-123101126D01*
X117564730Y-122853947D01*
X117666948Y-122589730D01*
X117730918Y-122313747D01*
X117731452Y-122307591D01*
X117754908Y-122036760D01*
X117754908Y-122036756D01*
X117755363Y-122031503D01*
X117739795Y-121748630D01*
X117728431Y-121691501D01*
X117685556Y-121475950D01*
X117685554Y-121475944D01*
X117684526Y-121470774D01*
X117590658Y-121203476D01*
X117563381Y-121150965D01*
X117462490Y-120956741D01*
X117462486Y-120956734D01*
X117460064Y-120952072D01*
X117295349Y-120721576D01*
X117291719Y-120717770D01*
X117291715Y-120717766D01*
X117172299Y-120592586D01*
X117099801Y-120516588D01*
X117083343Y-120503613D01*
X116956492Y-120403613D01*
X120912000Y-120403613D01*
X120912165Y-120408568D01*
X120926498Y-120624367D01*
X120927804Y-120634152D01*
X120985139Y-120918500D01*
X120987726Y-120928024D01*
X121082162Y-121202287D01*
X121085989Y-121211393D01*
X121215871Y-121470761D01*
X121220865Y-121479273D01*
X121383909Y-121719184D01*
X121389985Y-121726961D01*
X121583328Y-121943204D01*
X121590380Y-121950110D01*
X121810620Y-122138878D01*
X121818524Y-122144791D01*
X122061801Y-122302778D01*
X122070413Y-122307591D01*
X122332447Y-122432013D01*
X122341623Y-122435646D01*
X122617815Y-122524322D01*
X122627381Y-122526707D01*
X122896695Y-122575163D01*
X122912654Y-122573823D01*
X122916000Y-122566712D01*
X122916000Y-122554866D01*
X123424000Y-122554866D01*
X123428145Y-122570337D01*
X123438788Y-122573188D01*
X123511298Y-122566844D01*
X123521030Y-122565338D01*
X123804135Y-122502056D01*
X123813587Y-122499274D01*
X124085835Y-122399107D01*
X124094837Y-122395099D01*
X124351438Y-122259808D01*
X124359833Y-122254644D01*
X124596295Y-122086599D01*
X124603922Y-122080378D01*
X124816080Y-121882538D01*
X124822835Y-121875345D01*
X125006954Y-121651195D01*
X125012696Y-121643175D01*
X125165554Y-121396639D01*
X125170182Y-121387935D01*
X125289098Y-121123336D01*
X125292530Y-121114109D01*
X125375404Y-120836112D01*
X125377589Y-120826497D01*
X125423090Y-120539208D01*
X125423928Y-120530958D01*
X125427924Y-120442978D01*
X125428000Y-120439602D01*
X125428000Y-120403613D01*
X131072000Y-120403613D01*
X131072165Y-120408568D01*
X131086498Y-120624367D01*
X131087804Y-120634152D01*
X131145139Y-120918500D01*
X131147726Y-120928024D01*
X131242162Y-121202287D01*
X131245989Y-121211393D01*
X131375871Y-121470761D01*
X131380865Y-121479273D01*
X131543909Y-121719184D01*
X131549985Y-121726961D01*
X131743328Y-121943204D01*
X131750380Y-121950110D01*
X131970620Y-122138878D01*
X131978524Y-122144791D01*
X132221801Y-122302778D01*
X132230413Y-122307591D01*
X132492447Y-122432013D01*
X132501623Y-122435646D01*
X132777815Y-122524322D01*
X132787381Y-122526707D01*
X133056695Y-122575163D01*
X133072654Y-122573823D01*
X133076000Y-122566712D01*
X133076000Y-122554866D01*
X133584000Y-122554866D01*
X133588145Y-122570337D01*
X133598788Y-122573188D01*
X133671298Y-122566844D01*
X133681030Y-122565338D01*
X133964135Y-122502056D01*
X133973587Y-122499274D01*
X134245835Y-122399107D01*
X134254837Y-122395099D01*
X134511438Y-122259808D01*
X134519833Y-122254644D01*
X134756295Y-122086599D01*
X134763922Y-122080378D01*
X134976080Y-121882538D01*
X134982835Y-121875345D01*
X135166954Y-121651195D01*
X135172696Y-121643175D01*
X135325554Y-121396639D01*
X135330182Y-121387935D01*
X135449098Y-121123336D01*
X135452530Y-121114109D01*
X135535404Y-120836112D01*
X135537589Y-120826497D01*
X135583090Y-120539208D01*
X135583928Y-120530958D01*
X135585170Y-120503613D01*
X145912000Y-120503613D01*
X145912165Y-120508568D01*
X145926498Y-120724367D01*
X145927804Y-120734152D01*
X145985139Y-121018500D01*
X145987726Y-121028024D01*
X146082162Y-121302287D01*
X146085989Y-121311393D01*
X146215871Y-121570761D01*
X146220865Y-121579273D01*
X146383909Y-121819184D01*
X146389985Y-121826961D01*
X146583328Y-122043204D01*
X146590380Y-122050110D01*
X146810620Y-122238878D01*
X146818524Y-122244791D01*
X147061801Y-122402778D01*
X147070413Y-122407591D01*
X147332447Y-122532013D01*
X147341623Y-122535646D01*
X147617815Y-122624322D01*
X147627381Y-122626707D01*
X147896695Y-122675163D01*
X147912654Y-122673823D01*
X147916000Y-122666712D01*
X147916000Y-122654866D01*
X148424000Y-122654866D01*
X148428145Y-122670337D01*
X148438788Y-122673188D01*
X148511298Y-122666844D01*
X148521030Y-122665338D01*
X148804135Y-122602056D01*
X148813587Y-122599274D01*
X149085835Y-122499107D01*
X149094837Y-122495099D01*
X149351438Y-122359808D01*
X149359833Y-122354644D01*
X149596295Y-122186599D01*
X149603922Y-122180378D01*
X149816080Y-121982538D01*
X149822835Y-121975345D01*
X150006954Y-121751195D01*
X150012696Y-121743175D01*
X150165554Y-121496639D01*
X150170182Y-121487935D01*
X150289098Y-121223336D01*
X150292530Y-121214109D01*
X150375404Y-120936112D01*
X150377589Y-120926497D01*
X150423090Y-120639208D01*
X150423928Y-120630958D01*
X150427924Y-120542978D01*
X150428000Y-120539602D01*
X150428000Y-120503613D01*
X156072000Y-120503613D01*
X156072165Y-120508568D01*
X156086498Y-120724367D01*
X156087804Y-120734152D01*
X156145139Y-121018500D01*
X156147726Y-121028024D01*
X156242162Y-121302287D01*
X156245989Y-121311393D01*
X156375871Y-121570761D01*
X156380865Y-121579273D01*
X156543909Y-121819184D01*
X156549985Y-121826961D01*
X156743328Y-122043204D01*
X156750380Y-122050110D01*
X156970620Y-122238878D01*
X156978524Y-122244791D01*
X157221801Y-122402778D01*
X157230413Y-122407591D01*
X157492447Y-122532013D01*
X157501623Y-122535646D01*
X157777815Y-122624322D01*
X157787381Y-122626707D01*
X158056695Y-122675163D01*
X158072654Y-122673823D01*
X158076000Y-122666712D01*
X158076000Y-122654866D01*
X158584000Y-122654866D01*
X158588145Y-122670337D01*
X158598788Y-122673188D01*
X158671298Y-122666844D01*
X158681030Y-122665338D01*
X158964135Y-122602056D01*
X158973587Y-122599274D01*
X159245835Y-122499107D01*
X159254837Y-122495099D01*
X159511438Y-122359808D01*
X159519833Y-122354644D01*
X159756295Y-122186599D01*
X159763922Y-122180378D01*
X159976080Y-121982538D01*
X159982835Y-121975345D01*
X159988460Y-121968497D01*
X163744637Y-121968497D01*
X163760205Y-122251370D01*
X163761233Y-122256538D01*
X163810070Y-122502056D01*
X163815474Y-122529226D01*
X163817222Y-122534204D01*
X163817223Y-122534207D01*
X163828638Y-122566712D01*
X163909342Y-122796524D01*
X163911764Y-122801187D01*
X163911766Y-122801191D01*
X164037510Y-123043259D01*
X164037514Y-123043266D01*
X164039936Y-123047928D01*
X164204651Y-123278424D01*
X164208281Y-123282230D01*
X164208285Y-123282234D01*
X164327701Y-123407414D01*
X164400199Y-123483412D01*
X164622680Y-123658801D01*
X164682235Y-123693393D01*
X164863096Y-123798446D01*
X164863101Y-123798449D01*
X164867654Y-123801093D01*
X165130232Y-123907448D01*
X165252489Y-123937817D01*
X165400055Y-123974473D01*
X165400059Y-123974474D01*
X165405177Y-123975745D01*
X165410418Y-123976282D01*
X165410424Y-123976283D01*
X165643003Y-124000112D01*
X165646790Y-124000500D01*
X165822170Y-124000500D01*
X166032593Y-123985601D01*
X166309547Y-123925975D01*
X166575337Y-123827920D01*
X166579967Y-123825422D01*
X166579971Y-123825420D01*
X166820029Y-123695892D01*
X166820032Y-123695890D01*
X166824660Y-123693393D01*
X167052540Y-123525078D01*
X167056289Y-123521387D01*
X167056293Y-123521384D01*
X167152045Y-123427123D01*
X167254430Y-123326334D01*
X167353411Y-123196639D01*
X167423107Y-123105315D01*
X167426304Y-123101126D01*
X167564730Y-122853947D01*
X167666948Y-122589730D01*
X167730918Y-122313747D01*
X167731452Y-122307591D01*
X167754908Y-122036760D01*
X167754908Y-122036756D01*
X167755363Y-122031503D01*
X167739795Y-121748630D01*
X167728431Y-121691501D01*
X167685556Y-121475950D01*
X167685554Y-121475944D01*
X167684526Y-121470774D01*
X167590658Y-121203476D01*
X167563381Y-121150965D01*
X167462490Y-120956741D01*
X167462486Y-120956734D01*
X167460064Y-120952072D01*
X167295349Y-120721576D01*
X167291719Y-120717770D01*
X167291715Y-120717766D01*
X167172299Y-120592586D01*
X167099801Y-120516588D01*
X167083343Y-120503613D01*
X166881464Y-120344466D01*
X166877320Y-120341199D01*
X166747439Y-120265758D01*
X166636904Y-120201554D01*
X166636899Y-120201551D01*
X166632346Y-120198907D01*
X166369768Y-120092552D01*
X166229685Y-120057755D01*
X166099945Y-120025527D01*
X166099941Y-120025526D01*
X166094823Y-120024255D01*
X166089582Y-120023718D01*
X166089576Y-120023717D01*
X165856997Y-119999888D01*
X165853210Y-119999500D01*
X165677830Y-119999500D01*
X165467407Y-120014399D01*
X165190453Y-120074025D01*
X164924663Y-120172080D01*
X164920033Y-120174578D01*
X164920029Y-120174580D01*
X164679971Y-120304108D01*
X164675340Y-120306607D01*
X164671109Y-120309732D01*
X164671106Y-120309734D01*
X164537296Y-120408568D01*
X164447460Y-120474922D01*
X164443711Y-120478613D01*
X164443707Y-120478616D01*
X164413281Y-120508568D01*
X164245570Y-120673666D01*
X164073696Y-120898874D01*
X163935270Y-121146053D01*
X163833052Y-121410270D01*
X163769082Y-121686253D01*
X163768628Y-121691494D01*
X163768627Y-121691501D01*
X163746229Y-121950110D01*
X163744637Y-121968497D01*
X159988460Y-121968497D01*
X160166954Y-121751195D01*
X160172696Y-121743175D01*
X160325554Y-121496639D01*
X160330182Y-121487935D01*
X160449098Y-121223336D01*
X160452530Y-121214109D01*
X160535404Y-120936112D01*
X160537589Y-120926497D01*
X160583090Y-120639208D01*
X160583928Y-120630958D01*
X160587924Y-120542978D01*
X160588000Y-120539602D01*
X160588000Y-118953616D01*
X160583855Y-118938145D01*
X160568384Y-118934000D01*
X158603616Y-118934000D01*
X158588145Y-118938145D01*
X158584000Y-118953616D01*
X158584000Y-122654866D01*
X158076000Y-122654866D01*
X158076000Y-118953616D01*
X158071855Y-118938145D01*
X158056384Y-118934000D01*
X156091616Y-118934000D01*
X156076145Y-118938145D01*
X156072000Y-118953616D01*
X156072000Y-120503613D01*
X150428000Y-120503613D01*
X150428000Y-118953616D01*
X150423855Y-118938145D01*
X150408384Y-118934000D01*
X148443616Y-118934000D01*
X148428145Y-118938145D01*
X148424000Y-118953616D01*
X148424000Y-122654866D01*
X147916000Y-122654866D01*
X147916000Y-118953616D01*
X147911855Y-118938145D01*
X147896384Y-118934000D01*
X145931616Y-118934000D01*
X145916145Y-118938145D01*
X145912000Y-118953616D01*
X145912000Y-120503613D01*
X135585170Y-120503613D01*
X135587924Y-120442978D01*
X135588000Y-120439602D01*
X135588000Y-118853616D01*
X135583855Y-118838145D01*
X135568384Y-118834000D01*
X133603616Y-118834000D01*
X133588145Y-118838145D01*
X133584000Y-118853616D01*
X133584000Y-122554866D01*
X133076000Y-122554866D01*
X133076000Y-118853616D01*
X133071855Y-118838145D01*
X133056384Y-118834000D01*
X131091616Y-118834000D01*
X131076145Y-118838145D01*
X131072000Y-118853616D01*
X131072000Y-120403613D01*
X125428000Y-120403613D01*
X125428000Y-118853616D01*
X125423855Y-118838145D01*
X125408384Y-118834000D01*
X123443616Y-118834000D01*
X123428145Y-118838145D01*
X123424000Y-118853616D01*
X123424000Y-122554866D01*
X122916000Y-122554866D01*
X122916000Y-118853616D01*
X122911855Y-118838145D01*
X122896384Y-118834000D01*
X120931616Y-118834000D01*
X120916145Y-118838145D01*
X120912000Y-118853616D01*
X120912000Y-120403613D01*
X116956492Y-120403613D01*
X116881464Y-120344466D01*
X116877320Y-120341199D01*
X116747439Y-120265758D01*
X116636904Y-120201554D01*
X116636899Y-120201551D01*
X116632346Y-120198907D01*
X116369768Y-120092552D01*
X116229685Y-120057755D01*
X116099945Y-120025527D01*
X116099941Y-120025526D01*
X116094823Y-120024255D01*
X116089582Y-120023718D01*
X116089576Y-120023717D01*
X115856997Y-119999888D01*
X115853210Y-119999500D01*
X115677830Y-119999500D01*
X115467407Y-120014399D01*
X115190453Y-120074025D01*
X114924663Y-120172080D01*
X114920033Y-120174578D01*
X114920029Y-120174580D01*
X114679971Y-120304108D01*
X114675340Y-120306607D01*
X114671109Y-120309732D01*
X114671106Y-120309734D01*
X114537296Y-120408568D01*
X114447460Y-120474922D01*
X114443711Y-120478613D01*
X114443707Y-120478616D01*
X114413281Y-120508568D01*
X114245570Y-120673666D01*
X114073696Y-120898874D01*
X113935270Y-121146053D01*
X113833052Y-121410270D01*
X113769082Y-121686253D01*
X113768628Y-121691494D01*
X113768627Y-121691501D01*
X113746229Y-121950110D01*
X113744637Y-121968497D01*
X111151424Y-121968497D01*
X111150500Y-121956753D01*
X111150500Y-118406384D01*
X145912000Y-118406384D01*
X145916145Y-118421855D01*
X145931616Y-118426000D01*
X147896384Y-118426000D01*
X147911855Y-118421855D01*
X147916000Y-118406384D01*
X148424000Y-118406384D01*
X148428145Y-118421855D01*
X148443616Y-118426000D01*
X150408384Y-118426000D01*
X150423855Y-118421855D01*
X150428000Y-118406384D01*
X150428000Y-116856387D01*
X150427835Y-116851432D01*
X150413502Y-116635633D01*
X150412196Y-116625848D01*
X150354861Y-116341500D01*
X150352274Y-116331976D01*
X150257838Y-116057713D01*
X150254011Y-116048607D01*
X150124129Y-115789239D01*
X150119135Y-115780727D01*
X149956091Y-115540816D01*
X149950015Y-115533039D01*
X149756672Y-115316796D01*
X149749620Y-115309890D01*
X149529380Y-115121122D01*
X149521476Y-115115209D01*
X149278199Y-114957222D01*
X149269587Y-114952409D01*
X149007553Y-114827987D01*
X148998377Y-114824354D01*
X148722185Y-114735678D01*
X148712619Y-114733293D01*
X148443305Y-114684837D01*
X148427346Y-114686177D01*
X148424000Y-114693288D01*
X148424000Y-118406384D01*
X147916000Y-118406384D01*
X147916000Y-114705134D01*
X147911855Y-114689663D01*
X147901212Y-114686812D01*
X147828702Y-114693156D01*
X147818970Y-114694662D01*
X147535865Y-114757944D01*
X147526413Y-114760726D01*
X147254165Y-114860893D01*
X147245163Y-114864901D01*
X146988562Y-115000192D01*
X146980167Y-115005356D01*
X146743705Y-115173401D01*
X146736078Y-115179622D01*
X146523920Y-115377462D01*
X146517165Y-115384655D01*
X146333046Y-115608805D01*
X146327304Y-115616825D01*
X146174446Y-115863361D01*
X146169818Y-115872065D01*
X146050902Y-116136664D01*
X146047470Y-116145891D01*
X145964596Y-116423888D01*
X145962411Y-116433503D01*
X145916910Y-116720792D01*
X145916072Y-116729042D01*
X145912076Y-116817022D01*
X145912000Y-116820398D01*
X145912000Y-118406384D01*
X111150500Y-118406384D01*
X111150500Y-118306384D01*
X120912000Y-118306384D01*
X120916145Y-118321855D01*
X120931616Y-118326000D01*
X122896384Y-118326000D01*
X122911855Y-118321855D01*
X122916000Y-118306384D01*
X123424000Y-118306384D01*
X123428145Y-118321855D01*
X123443616Y-118326000D01*
X125408384Y-118326000D01*
X125423855Y-118321855D01*
X125428000Y-118306384D01*
X125428000Y-116756387D01*
X125427835Y-116751432D01*
X125413502Y-116535633D01*
X125412196Y-116525848D01*
X125354861Y-116241500D01*
X125352274Y-116231976D01*
X125257838Y-115957713D01*
X125254011Y-115948607D01*
X125124129Y-115689239D01*
X125119135Y-115680727D01*
X124956091Y-115440816D01*
X124950015Y-115433039D01*
X124756672Y-115216796D01*
X124749620Y-115209890D01*
X124529380Y-115021122D01*
X124521476Y-115015209D01*
X124278199Y-114857222D01*
X124269587Y-114852409D01*
X124007553Y-114727987D01*
X123998377Y-114724354D01*
X123722185Y-114635678D01*
X123712619Y-114633293D01*
X123443305Y-114584837D01*
X123427346Y-114586177D01*
X123424000Y-114593288D01*
X123424000Y-118306384D01*
X122916000Y-118306384D01*
X122916000Y-114605134D01*
X122911855Y-114589663D01*
X122901212Y-114586812D01*
X122828702Y-114593156D01*
X122818970Y-114594662D01*
X122535865Y-114657944D01*
X122526413Y-114660726D01*
X122254165Y-114760893D01*
X122245163Y-114764901D01*
X121988562Y-114900192D01*
X121980167Y-114905356D01*
X121743705Y-115073401D01*
X121736078Y-115079622D01*
X121523920Y-115277462D01*
X121517165Y-115284655D01*
X121333046Y-115508805D01*
X121327304Y-115516825D01*
X121174446Y-115763361D01*
X121169818Y-115772065D01*
X121050902Y-116036664D01*
X121047470Y-116045891D01*
X120964596Y-116323888D01*
X120962411Y-116333503D01*
X120916910Y-116620792D01*
X120916072Y-116629042D01*
X120912076Y-116717022D01*
X120912000Y-116720398D01*
X120912000Y-118306384D01*
X111150500Y-118306384D01*
X111150500Y-114005970D01*
X127049500Y-114005970D01*
X127064546Y-114169711D01*
X127124435Y-114382064D01*
X127127457Y-114388193D01*
X127127459Y-114388197D01*
X127190116Y-114515253D01*
X127222020Y-114579947D01*
X127354033Y-114756733D01*
X127359050Y-114761371D01*
X127359053Y-114761374D01*
X127509226Y-114900192D01*
X127516051Y-114906501D01*
X127521829Y-114910146D01*
X127521832Y-114910149D01*
X127667186Y-115001860D01*
X127702650Y-115024236D01*
X127907579Y-115105994D01*
X127938779Y-115112200D01*
X128117273Y-115147705D01*
X128117276Y-115147705D01*
X128123976Y-115149038D01*
X128235736Y-115150501D01*
X128337760Y-115151837D01*
X128337765Y-115151837D01*
X128344594Y-115151926D01*
X128351327Y-115150769D01*
X128351328Y-115150769D01*
X128555315Y-115115718D01*
X128555314Y-115115718D01*
X128562043Y-115114562D01*
X128568442Y-115112201D01*
X128568447Y-115112200D01*
X128701453Y-115063131D01*
X128769043Y-115038196D01*
X128958659Y-114925386D01*
X129124543Y-114779910D01*
X129136375Y-114764901D01*
X129256908Y-114612005D01*
X129256910Y-114612002D01*
X129261137Y-114606640D01*
X129268232Y-114593156D01*
X129328955Y-114477740D01*
X129381309Y-114421103D01*
X129454968Y-114398231D01*
X129530194Y-114415253D01*
X129586831Y-114467607D01*
X129595858Y-114484146D01*
X129650161Y-114600598D01*
X129656645Y-114611830D01*
X129780458Y-114788652D01*
X129788785Y-114798576D01*
X129941424Y-114951215D01*
X129951348Y-114959542D01*
X130128170Y-115083355D01*
X130139402Y-115089839D01*
X130335036Y-115181065D01*
X130347210Y-115185496D01*
X130517052Y-115231005D01*
X130533069Y-115231005D01*
X130536000Y-115225928D01*
X130536000Y-115216466D01*
X131044000Y-115216466D01*
X131048145Y-115231937D01*
X131053808Y-115233454D01*
X131232790Y-115185496D01*
X131244964Y-115181065D01*
X131440598Y-115089839D01*
X131451831Y-115083354D01*
X131480712Y-115063131D01*
X131553189Y-115036751D01*
X131629145Y-115050144D01*
X131688229Y-115099720D01*
X131714609Y-115172197D01*
X131701216Y-115248153D01*
X131679529Y-115280195D01*
X131680305Y-115280833D01*
X131493046Y-115508805D01*
X131487304Y-115516825D01*
X131334446Y-115763361D01*
X131329818Y-115772065D01*
X131210902Y-116036664D01*
X131207470Y-116045891D01*
X131124596Y-116323888D01*
X131122411Y-116333503D01*
X131076910Y-116620792D01*
X131076072Y-116629042D01*
X131072076Y-116717022D01*
X131072000Y-116720398D01*
X131072000Y-118306384D01*
X131076145Y-118321855D01*
X131091616Y-118326000D01*
X133056384Y-118326000D01*
X133071855Y-118321855D01*
X133076000Y-118306384D01*
X133584000Y-118306384D01*
X133588145Y-118321855D01*
X133603616Y-118326000D01*
X135568384Y-118326000D01*
X135583855Y-118321855D01*
X135588000Y-118306384D01*
X135588000Y-116756387D01*
X135587835Y-116751432D01*
X135573502Y-116535633D01*
X135572196Y-116525848D01*
X135514861Y-116241500D01*
X135512274Y-116231976D01*
X135417838Y-115957713D01*
X135414011Y-115948607D01*
X135284129Y-115689239D01*
X135279135Y-115680727D01*
X135116091Y-115440816D01*
X135110015Y-115433039D01*
X134916672Y-115216796D01*
X134909620Y-115209890D01*
X134689380Y-115021122D01*
X134681476Y-115015209D01*
X134438199Y-114857222D01*
X134429587Y-114852409D01*
X134167553Y-114727987D01*
X134158377Y-114724354D01*
X133882185Y-114635678D01*
X133872619Y-114633293D01*
X133603305Y-114584837D01*
X133587346Y-114586177D01*
X133584000Y-114593288D01*
X133584000Y-118306384D01*
X133076000Y-118306384D01*
X133076000Y-114605134D01*
X133071855Y-114589663D01*
X133061212Y-114586812D01*
X132988702Y-114593156D01*
X132978970Y-114594662D01*
X132695865Y-114657944D01*
X132686413Y-114660726D01*
X132414165Y-114760893D01*
X132405163Y-114764901D01*
X132148562Y-114900192D01*
X132140167Y-114905356D01*
X132001888Y-115003626D01*
X131929597Y-115030511D01*
X131853549Y-115017648D01*
X131794121Y-114968485D01*
X131767236Y-114896194D01*
X131780099Y-114820146D01*
X131796388Y-114794381D01*
X131795813Y-114793978D01*
X131923355Y-114611830D01*
X131929839Y-114600598D01*
X132021065Y-114404964D01*
X132025496Y-114392790D01*
X132081367Y-114184278D01*
X132083616Y-114171523D01*
X132089351Y-114105970D01*
X152049500Y-114105970D01*
X152064546Y-114269711D01*
X152124435Y-114482064D01*
X152127457Y-114488193D01*
X152127459Y-114488197D01*
X152179962Y-114594662D01*
X152222020Y-114679947D01*
X152354033Y-114856733D01*
X152359050Y-114861371D01*
X152359053Y-114861374D01*
X152504901Y-114996194D01*
X152516051Y-115006501D01*
X152521829Y-115010146D01*
X152521832Y-115010149D01*
X152600116Y-115059542D01*
X152702650Y-115124236D01*
X152907579Y-115205994D01*
X152927166Y-115209890D01*
X153117273Y-115247705D01*
X153117276Y-115247705D01*
X153123976Y-115249038D01*
X153235736Y-115250501D01*
X153337760Y-115251837D01*
X153337765Y-115251837D01*
X153344594Y-115251926D01*
X153351327Y-115250769D01*
X153351328Y-115250769D01*
X153495896Y-115225928D01*
X153562043Y-115214562D01*
X153568442Y-115212201D01*
X153568447Y-115212200D01*
X153701453Y-115163131D01*
X153769043Y-115138196D01*
X153958659Y-115025386D01*
X154124543Y-114879910D01*
X154136375Y-114864901D01*
X154256908Y-114712005D01*
X154256910Y-114712002D01*
X154261137Y-114706640D01*
X154268232Y-114693156D01*
X154328955Y-114577740D01*
X154381309Y-114521103D01*
X154454968Y-114498231D01*
X154530194Y-114515253D01*
X154586831Y-114567607D01*
X154595858Y-114584146D01*
X154650161Y-114700598D01*
X154656645Y-114711830D01*
X154780458Y-114888652D01*
X154788785Y-114898576D01*
X154941424Y-115051215D01*
X154951348Y-115059542D01*
X155128170Y-115183355D01*
X155139402Y-115189839D01*
X155335036Y-115281065D01*
X155347210Y-115285496D01*
X155517052Y-115331005D01*
X155533069Y-115331005D01*
X155536000Y-115325928D01*
X155536000Y-115316466D01*
X156044000Y-115316466D01*
X156048145Y-115331937D01*
X156053808Y-115333454D01*
X156232790Y-115285496D01*
X156244964Y-115281065D01*
X156440598Y-115189839D01*
X156451831Y-115183354D01*
X156480712Y-115163131D01*
X156553189Y-115136751D01*
X156629145Y-115150144D01*
X156688229Y-115199720D01*
X156714609Y-115272197D01*
X156701216Y-115348153D01*
X156679529Y-115380195D01*
X156680305Y-115380833D01*
X156493046Y-115608805D01*
X156487304Y-115616825D01*
X156334446Y-115863361D01*
X156329818Y-115872065D01*
X156210902Y-116136664D01*
X156207470Y-116145891D01*
X156124596Y-116423888D01*
X156122411Y-116433503D01*
X156076910Y-116720792D01*
X156076072Y-116729042D01*
X156072076Y-116817022D01*
X156072000Y-116820398D01*
X156072000Y-118406384D01*
X156076145Y-118421855D01*
X156091616Y-118426000D01*
X158056384Y-118426000D01*
X158071855Y-118421855D01*
X158076000Y-118406384D01*
X158584000Y-118406384D01*
X158588145Y-118421855D01*
X158603616Y-118426000D01*
X160568384Y-118426000D01*
X160583855Y-118421855D01*
X160588000Y-118406384D01*
X160588000Y-116856387D01*
X160587835Y-116851432D01*
X160573502Y-116635633D01*
X160572196Y-116625848D01*
X160514861Y-116341500D01*
X160512274Y-116331976D01*
X160417838Y-116057713D01*
X160414011Y-116048607D01*
X160284129Y-115789239D01*
X160279135Y-115780727D01*
X160116091Y-115540816D01*
X160110015Y-115533039D01*
X159916672Y-115316796D01*
X159909620Y-115309890D01*
X159689380Y-115121122D01*
X159681476Y-115115209D01*
X159438199Y-114957222D01*
X159429587Y-114952409D01*
X159167553Y-114827987D01*
X159158377Y-114824354D01*
X158882185Y-114735678D01*
X158872619Y-114733293D01*
X158603305Y-114684837D01*
X158587346Y-114686177D01*
X158584000Y-114693288D01*
X158584000Y-118406384D01*
X158076000Y-118406384D01*
X158076000Y-114705134D01*
X158071855Y-114689663D01*
X158061212Y-114686812D01*
X157988702Y-114693156D01*
X157978970Y-114694662D01*
X157695865Y-114757944D01*
X157686413Y-114760726D01*
X157414165Y-114860893D01*
X157405163Y-114864901D01*
X157148562Y-115000192D01*
X157140167Y-115005356D01*
X157001888Y-115103626D01*
X156929597Y-115130511D01*
X156853549Y-115117648D01*
X156794121Y-115068485D01*
X156767236Y-114996194D01*
X156780099Y-114920146D01*
X156796388Y-114894381D01*
X156795813Y-114893978D01*
X156923355Y-114711830D01*
X156929839Y-114700598D01*
X157021065Y-114504964D01*
X157025496Y-114492790D01*
X157081367Y-114284278D01*
X157083616Y-114271523D01*
X157097717Y-114110341D01*
X157098000Y-114103857D01*
X157098000Y-113873616D01*
X157093855Y-113858145D01*
X157078384Y-113854000D01*
X156063616Y-113854000D01*
X156048145Y-113858145D01*
X156044000Y-113873616D01*
X156044000Y-115316466D01*
X155536000Y-115316466D01*
X155536000Y-113326384D01*
X156044000Y-113326384D01*
X156048145Y-113341855D01*
X156063616Y-113346000D01*
X157078384Y-113346000D01*
X157093855Y-113341855D01*
X157098000Y-113326384D01*
X157098000Y-113096143D01*
X157097717Y-113089659D01*
X157083616Y-112928477D01*
X157081367Y-112915722D01*
X157025496Y-112707210D01*
X157021065Y-112695036D01*
X156929839Y-112499402D01*
X156923355Y-112488170D01*
X156799542Y-112311348D01*
X156791215Y-112301424D01*
X156638576Y-112148785D01*
X156628652Y-112140458D01*
X156451830Y-112016645D01*
X156440598Y-112010161D01*
X156244964Y-111918935D01*
X156232790Y-111914504D01*
X156062948Y-111868995D01*
X156046931Y-111868995D01*
X156044000Y-111874072D01*
X156044000Y-113326384D01*
X155536000Y-113326384D01*
X155536000Y-111883534D01*
X155531855Y-111868063D01*
X155526192Y-111866546D01*
X155347210Y-111914504D01*
X155335036Y-111918935D01*
X155139402Y-112010161D01*
X155128170Y-112016645D01*
X154951348Y-112140458D01*
X154941424Y-112148785D01*
X154788785Y-112301424D01*
X154780458Y-112311348D01*
X154656645Y-112488170D01*
X154650161Y-112499402D01*
X154595608Y-112616391D01*
X154546031Y-112675475D01*
X154473554Y-112701854D01*
X154397598Y-112688461D01*
X154338514Y-112638884D01*
X154326934Y-112619322D01*
X154281002Y-112526181D01*
X154277980Y-112520053D01*
X154145967Y-112343267D01*
X154140950Y-112338629D01*
X154140947Y-112338626D01*
X153988970Y-112198140D01*
X153988968Y-112198138D01*
X153983949Y-112193499D01*
X153978171Y-112189854D01*
X153978168Y-112189851D01*
X153803127Y-112079409D01*
X153797350Y-112075764D01*
X153592421Y-111994006D01*
X153519037Y-111979409D01*
X153382727Y-111952295D01*
X153382724Y-111952295D01*
X153376024Y-111950962D01*
X153264264Y-111949499D01*
X153162240Y-111948163D01*
X153162235Y-111948163D01*
X153155406Y-111948074D01*
X153148673Y-111949231D01*
X153148672Y-111949231D01*
X153075501Y-111961804D01*
X152937957Y-111985438D01*
X152931558Y-111987799D01*
X152931553Y-111987800D01*
X152853366Y-112016645D01*
X152730957Y-112061804D01*
X152541341Y-112174614D01*
X152375457Y-112320090D01*
X152371230Y-112325452D01*
X152371229Y-112325453D01*
X152360845Y-112338626D01*
X152238863Y-112493360D01*
X152195660Y-112575475D01*
X152162299Y-112638884D01*
X152136131Y-112688620D01*
X152134106Y-112695143D01*
X152072727Y-112892813D01*
X152072726Y-112892818D01*
X152070703Y-112899333D01*
X152069901Y-112906110D01*
X152069900Y-112906114D01*
X152050015Y-113074123D01*
X152049500Y-113078476D01*
X152049500Y-114105970D01*
X132089351Y-114105970D01*
X132097717Y-114010341D01*
X132098000Y-114003857D01*
X132098000Y-113773616D01*
X132093855Y-113758145D01*
X132078384Y-113754000D01*
X131063616Y-113754000D01*
X131048145Y-113758145D01*
X131044000Y-113773616D01*
X131044000Y-115216466D01*
X130536000Y-115216466D01*
X130536000Y-113226384D01*
X131044000Y-113226384D01*
X131048145Y-113241855D01*
X131063616Y-113246000D01*
X132078384Y-113246000D01*
X132093855Y-113241855D01*
X132098000Y-113226384D01*
X132098000Y-112996143D01*
X132097717Y-112989659D01*
X132083616Y-112828477D01*
X132081367Y-112815722D01*
X132025496Y-112607210D01*
X132021065Y-112595036D01*
X131929839Y-112399402D01*
X131923355Y-112388170D01*
X131799542Y-112211348D01*
X131791215Y-112201424D01*
X131638576Y-112048785D01*
X131628652Y-112040458D01*
X131451830Y-111916645D01*
X131440598Y-111910161D01*
X131244964Y-111818935D01*
X131232790Y-111814504D01*
X131062948Y-111768995D01*
X131046931Y-111768995D01*
X131044000Y-111774072D01*
X131044000Y-113226384D01*
X130536000Y-113226384D01*
X130536000Y-111783534D01*
X130531855Y-111768063D01*
X130526192Y-111766546D01*
X130347210Y-111814504D01*
X130335036Y-111818935D01*
X130139402Y-111910161D01*
X130128170Y-111916645D01*
X129951348Y-112040458D01*
X129941424Y-112048785D01*
X129788785Y-112201424D01*
X129780458Y-112211348D01*
X129656645Y-112388170D01*
X129650161Y-112399402D01*
X129595608Y-112516391D01*
X129546031Y-112575475D01*
X129473554Y-112601854D01*
X129397598Y-112588461D01*
X129338514Y-112538884D01*
X129326934Y-112519322D01*
X129281002Y-112426181D01*
X129277980Y-112420053D01*
X129145967Y-112243267D01*
X129140950Y-112238629D01*
X129140947Y-112238626D01*
X128988970Y-112098140D01*
X128988968Y-112098138D01*
X128983949Y-112093499D01*
X128978171Y-112089854D01*
X128978168Y-112089851D01*
X128803127Y-111979409D01*
X128797350Y-111975764D01*
X128592421Y-111894006D01*
X128492206Y-111874072D01*
X128382727Y-111852295D01*
X128382724Y-111852295D01*
X128376024Y-111850962D01*
X128264264Y-111849499D01*
X128162240Y-111848163D01*
X128162235Y-111848163D01*
X128155406Y-111848074D01*
X128148673Y-111849231D01*
X128148672Y-111849231D01*
X128047904Y-111866546D01*
X127937957Y-111885438D01*
X127931558Y-111887799D01*
X127931553Y-111887800D01*
X127853366Y-111916645D01*
X127730957Y-111961804D01*
X127541341Y-112074614D01*
X127375457Y-112220090D01*
X127371230Y-112225452D01*
X127371229Y-112225453D01*
X127274037Y-112348742D01*
X127238863Y-112393360D01*
X127227698Y-112414581D01*
X127162299Y-112538884D01*
X127136131Y-112588620D01*
X127134106Y-112595143D01*
X127072727Y-112792813D01*
X127072726Y-112792818D01*
X127070703Y-112799333D01*
X127069901Y-112806110D01*
X127069900Y-112806114D01*
X127056927Y-112915722D01*
X127049500Y-112978476D01*
X127049500Y-114005970D01*
X111150500Y-114005970D01*
X111150500Y-99089455D01*
X130594825Y-99089455D01*
X130595637Y-99097737D01*
X130595637Y-99097741D01*
X130598381Y-99125725D01*
X130611255Y-99257025D01*
X130664402Y-99416791D01*
X130751624Y-99560812D01*
X130868586Y-99681929D01*
X130875555Y-99686490D01*
X130875557Y-99686491D01*
X131002503Y-99769563D01*
X131002506Y-99769564D01*
X131009475Y-99774125D01*
X131167289Y-99832815D01*
X131175543Y-99833916D01*
X131175546Y-99833917D01*
X131325928Y-99853982D01*
X131325932Y-99853982D01*
X131334183Y-99855083D01*
X131442053Y-99845266D01*
X131493570Y-99840578D01*
X131493572Y-99840578D01*
X131501864Y-99839823D01*
X131661997Y-99787793D01*
X131806623Y-99701578D01*
X131928554Y-99585465D01*
X131944934Y-99560812D01*
X132017120Y-99452163D01*
X132021731Y-99445223D01*
X132081521Y-99287823D01*
X132104955Y-99121088D01*
X132105249Y-99100000D01*
X132086481Y-98932676D01*
X132031108Y-98773668D01*
X131941884Y-98630879D01*
X131823242Y-98511406D01*
X131816212Y-98506945D01*
X131816210Y-98506943D01*
X131767944Y-98476313D01*
X131715738Y-98419539D01*
X131698913Y-98344269D01*
X131721977Y-98270670D01*
X131771488Y-98222523D01*
X131799469Y-98205843D01*
X131799471Y-98205841D01*
X131806623Y-98201578D01*
X131928554Y-98085465D01*
X131944934Y-98060812D01*
X132017120Y-97952163D01*
X132021731Y-97945223D01*
X132081521Y-97787823D01*
X132104955Y-97621088D01*
X132105249Y-97600000D01*
X132086481Y-97432676D01*
X132031108Y-97273668D01*
X131941884Y-97130879D01*
X131823242Y-97011406D01*
X131816212Y-97006945D01*
X131816210Y-97006943D01*
X131688112Y-96925650D01*
X131688110Y-96925649D01*
X131681079Y-96921187D01*
X131673233Y-96918393D01*
X131530304Y-96867498D01*
X131530301Y-96867497D01*
X131522462Y-96864706D01*
X131514199Y-96863721D01*
X131514196Y-96863720D01*
X131419685Y-96852450D01*
X131355273Y-96844769D01*
X131346995Y-96845639D01*
X131346993Y-96845639D01*
X131271547Y-96853569D01*
X131187821Y-96862369D01*
X131028431Y-96916630D01*
X130885022Y-97004856D01*
X130764724Y-97122661D01*
X130673515Y-97264190D01*
X130615927Y-97422409D01*
X130614884Y-97430668D01*
X130614883Y-97430671D01*
X130606998Y-97493094D01*
X130594825Y-97589455D01*
X130595637Y-97597737D01*
X130595637Y-97597741D01*
X130598381Y-97625725D01*
X130611255Y-97757025D01*
X130664402Y-97916791D01*
X130751624Y-98060812D01*
X130868586Y-98181929D01*
X130875558Y-98186492D01*
X130875560Y-98186493D01*
X130934446Y-98225028D01*
X130985854Y-98282526D01*
X131001626Y-98358024D01*
X130977535Y-98431293D01*
X130930932Y-98476612D01*
X130885022Y-98504856D01*
X130764724Y-98622661D01*
X130673515Y-98764190D01*
X130615927Y-98922409D01*
X130614884Y-98930668D01*
X130614883Y-98930671D01*
X130606998Y-98993094D01*
X130594825Y-99089455D01*
X111150500Y-99089455D01*
X111150500Y-93839455D01*
X154094825Y-93839455D01*
X154095637Y-93847737D01*
X154095637Y-93847741D01*
X154098381Y-93875725D01*
X154111255Y-94007025D01*
X154164402Y-94166791D01*
X154251624Y-94310812D01*
X154368586Y-94431929D01*
X154375555Y-94436490D01*
X154375557Y-94436491D01*
X154502503Y-94519563D01*
X154502506Y-94519564D01*
X154509475Y-94524125D01*
X154667289Y-94582815D01*
X154675543Y-94583916D01*
X154675546Y-94583917D01*
X154825928Y-94603982D01*
X154825932Y-94603982D01*
X154834183Y-94605083D01*
X154942053Y-94595266D01*
X154993570Y-94590578D01*
X154993572Y-94590578D01*
X155001864Y-94589823D01*
X155161997Y-94537793D01*
X155306623Y-94451578D01*
X155428554Y-94335465D01*
X155444934Y-94310812D01*
X155517120Y-94202163D01*
X155521731Y-94195223D01*
X155581521Y-94037823D01*
X155604955Y-93871088D01*
X155605249Y-93850000D01*
X155586481Y-93682676D01*
X155531108Y-93523668D01*
X155441884Y-93380879D01*
X155436016Y-93374970D01*
X155430839Y-93368438D01*
X155433279Y-93366504D01*
X155402671Y-93313074D01*
X155402931Y-93235946D01*
X155429121Y-93185842D01*
X155428554Y-93185465D01*
X155432139Y-93180069D01*
X155444934Y-93160812D01*
X155517120Y-93052163D01*
X155521731Y-93045223D01*
X155581521Y-92887823D01*
X155584088Y-92869563D01*
X155596404Y-92781929D01*
X155604955Y-92721088D01*
X155605249Y-92700000D01*
X155586481Y-92532676D01*
X155531108Y-92373668D01*
X155441884Y-92230879D01*
X155323242Y-92111406D01*
X155316212Y-92106945D01*
X155316210Y-92106943D01*
X155188112Y-92025650D01*
X155188110Y-92025649D01*
X155181079Y-92021187D01*
X155168852Y-92016833D01*
X155030304Y-91967498D01*
X155030301Y-91967497D01*
X155022462Y-91964706D01*
X155014199Y-91963721D01*
X155014196Y-91963720D01*
X154919685Y-91952450D01*
X154855273Y-91944769D01*
X154846995Y-91945639D01*
X154846993Y-91945639D01*
X154771547Y-91953569D01*
X154687821Y-91962369D01*
X154528431Y-92016630D01*
X154521335Y-92020996D01*
X154521334Y-92020996D01*
X154502349Y-92032676D01*
X154385022Y-92104856D01*
X154331582Y-92157189D01*
X154287865Y-92200000D01*
X154264724Y-92222661D01*
X154173515Y-92364190D01*
X154115927Y-92522409D01*
X154114884Y-92530668D01*
X154114883Y-92530671D01*
X154113045Y-92545223D01*
X154094825Y-92689455D01*
X154095637Y-92697737D01*
X154095637Y-92697741D01*
X154098381Y-92725725D01*
X154111255Y-92857025D01*
X154113881Y-92864920D01*
X154113882Y-92864923D01*
X154151674Y-92978528D01*
X154164402Y-93016791D01*
X154251624Y-93160812D01*
X154260075Y-93169563D01*
X154261148Y-93170674D01*
X154298542Y-93238131D01*
X154297198Y-93315248D01*
X154269762Y-93367727D01*
X154264724Y-93372661D01*
X154173515Y-93514190D01*
X154115927Y-93672409D01*
X154114884Y-93680668D01*
X154114883Y-93680671D01*
X154106998Y-93743094D01*
X154094825Y-93839455D01*
X111150500Y-93839455D01*
X111150500Y-92489455D01*
X120494825Y-92489455D01*
X120495637Y-92497737D01*
X120495637Y-92497741D01*
X120498056Y-92522409D01*
X120511255Y-92657025D01*
X120513881Y-92664920D01*
X120513882Y-92664923D01*
X120557431Y-92795836D01*
X120564402Y-92816791D01*
X120651624Y-92960812D01*
X120768586Y-93081929D01*
X120775555Y-93086490D01*
X120775557Y-93086491D01*
X120902503Y-93169563D01*
X120902506Y-93169564D01*
X120909475Y-93174125D01*
X120917285Y-93177029D01*
X120917286Y-93177030D01*
X120940981Y-93185842D01*
X121067289Y-93232815D01*
X121075543Y-93233916D01*
X121075546Y-93233917D01*
X121225928Y-93253982D01*
X121225932Y-93253982D01*
X121234183Y-93255083D01*
X121342053Y-93245266D01*
X121393570Y-93240578D01*
X121393572Y-93240578D01*
X121401864Y-93239823D01*
X121561997Y-93187793D01*
X121706623Y-93101578D01*
X121828554Y-92985465D01*
X121844934Y-92960812D01*
X121917120Y-92852163D01*
X121921731Y-92845223D01*
X121981521Y-92687823D01*
X121982828Y-92678528D01*
X121991441Y-92617239D01*
X122004955Y-92521088D01*
X122005249Y-92500000D01*
X121986481Y-92332676D01*
X121936606Y-92189455D01*
X141194825Y-92189455D01*
X141195637Y-92197737D01*
X141195637Y-92197741D01*
X141199579Y-92237943D01*
X141211255Y-92357025D01*
X141213881Y-92364920D01*
X141213882Y-92364923D01*
X141257266Y-92495340D01*
X141264402Y-92516791D01*
X141351624Y-92660812D01*
X141357412Y-92666805D01*
X141357413Y-92666807D01*
X141393989Y-92704682D01*
X141468586Y-92781929D01*
X141475555Y-92786490D01*
X141475557Y-92786491D01*
X141602503Y-92869563D01*
X141602506Y-92869564D01*
X141609475Y-92874125D01*
X141617285Y-92877029D01*
X141617286Y-92877030D01*
X141634756Y-92883527D01*
X141767289Y-92932815D01*
X141775543Y-92933916D01*
X141775546Y-92933917D01*
X141925928Y-92953982D01*
X141925932Y-92953982D01*
X141934183Y-92955083D01*
X142042053Y-92945266D01*
X142093570Y-92940578D01*
X142093572Y-92940578D01*
X142101864Y-92939823D01*
X142261997Y-92887793D01*
X142381103Y-92816791D01*
X142399472Y-92805841D01*
X142399473Y-92805840D01*
X142406623Y-92801578D01*
X142528554Y-92685465D01*
X142544934Y-92660812D01*
X142617120Y-92552163D01*
X142621731Y-92545223D01*
X142681521Y-92387823D01*
X142683511Y-92373668D01*
X142704303Y-92225725D01*
X142704955Y-92221088D01*
X142705249Y-92200000D01*
X142686481Y-92032676D01*
X142631108Y-91873668D01*
X142541884Y-91730879D01*
X142423242Y-91611406D01*
X142416212Y-91606945D01*
X142416210Y-91606943D01*
X142288112Y-91525650D01*
X142288110Y-91525649D01*
X142281079Y-91521187D01*
X142273233Y-91518393D01*
X142130304Y-91467498D01*
X142130301Y-91467497D01*
X142122462Y-91464706D01*
X142114199Y-91463721D01*
X142114196Y-91463720D01*
X142019685Y-91452450D01*
X141955273Y-91444769D01*
X141946995Y-91445639D01*
X141946993Y-91445639D01*
X141871547Y-91453569D01*
X141787821Y-91462369D01*
X141628431Y-91516630D01*
X141485022Y-91604856D01*
X141364724Y-91722661D01*
X141273515Y-91864190D01*
X141270667Y-91872016D01*
X141270666Y-91872017D01*
X141257954Y-91906943D01*
X141215927Y-92022409D01*
X141214884Y-92030668D01*
X141214883Y-92030671D01*
X141206998Y-92093094D01*
X141194825Y-92189455D01*
X121936606Y-92189455D01*
X121931108Y-92173668D01*
X121841884Y-92030879D01*
X121723242Y-91911406D01*
X121716212Y-91906945D01*
X121716210Y-91906943D01*
X121588112Y-91825650D01*
X121588110Y-91825649D01*
X121581079Y-91821187D01*
X121573233Y-91818393D01*
X121430304Y-91767498D01*
X121430301Y-91767497D01*
X121422462Y-91764706D01*
X121414199Y-91763721D01*
X121414196Y-91763720D01*
X121319685Y-91752450D01*
X121255273Y-91744769D01*
X121246995Y-91745639D01*
X121246993Y-91745639D01*
X121171547Y-91753569D01*
X121087821Y-91762369D01*
X120928431Y-91816630D01*
X120785022Y-91904856D01*
X120727180Y-91961499D01*
X120670883Y-92016630D01*
X120664724Y-92022661D01*
X120573515Y-92164190D01*
X120515927Y-92322409D01*
X120514884Y-92330668D01*
X120514883Y-92330671D01*
X120512601Y-92348740D01*
X120494825Y-92489455D01*
X111150500Y-92489455D01*
X111150500Y-87789455D01*
X119694825Y-87789455D01*
X119695637Y-87797737D01*
X119695637Y-87797741D01*
X119700532Y-87847661D01*
X119711255Y-87957025D01*
X119713881Y-87964920D01*
X119713882Y-87964923D01*
X119725108Y-87998668D01*
X119764402Y-88116791D01*
X119768717Y-88123916D01*
X119780011Y-88142564D01*
X119851624Y-88260812D01*
X119968586Y-88381929D01*
X119975555Y-88386490D01*
X119975557Y-88386491D01*
X120102503Y-88469563D01*
X120102506Y-88469564D01*
X120109475Y-88474125D01*
X120117285Y-88477029D01*
X120117286Y-88477030D01*
X120134756Y-88483527D01*
X120267289Y-88532815D01*
X120275543Y-88533916D01*
X120275546Y-88533917D01*
X120425928Y-88553982D01*
X120425932Y-88553982D01*
X120434183Y-88555083D01*
X120542053Y-88545266D01*
X120593570Y-88540578D01*
X120593572Y-88540578D01*
X120601864Y-88539823D01*
X120761997Y-88487793D01*
X120906623Y-88401578D01*
X121028554Y-88285465D01*
X121044934Y-88260812D01*
X121117120Y-88152163D01*
X121121731Y-88145223D01*
X121181521Y-87987823D01*
X121204955Y-87821088D01*
X121205249Y-87800000D01*
X121204066Y-87789455D01*
X124994825Y-87789455D01*
X124995637Y-87797737D01*
X124995637Y-87797741D01*
X125000532Y-87847661D01*
X125011255Y-87957025D01*
X125013881Y-87964920D01*
X125013882Y-87964923D01*
X125025108Y-87998668D01*
X125064402Y-88116791D01*
X125068717Y-88123916D01*
X125080011Y-88142564D01*
X125151624Y-88260812D01*
X125268586Y-88381929D01*
X125275555Y-88386490D01*
X125275557Y-88386491D01*
X125402503Y-88469563D01*
X125402506Y-88469564D01*
X125409475Y-88474125D01*
X125417285Y-88477029D01*
X125417286Y-88477030D01*
X125434756Y-88483527D01*
X125567289Y-88532815D01*
X125575543Y-88533916D01*
X125575546Y-88533917D01*
X125725928Y-88553982D01*
X125725932Y-88553982D01*
X125734183Y-88555083D01*
X125842053Y-88545266D01*
X125893570Y-88540578D01*
X125893572Y-88540578D01*
X125901864Y-88539823D01*
X126061997Y-88487793D01*
X126206623Y-88401578D01*
X126298111Y-88314455D01*
X130319825Y-88314455D01*
X130320637Y-88322737D01*
X130320637Y-88322741D01*
X130323381Y-88350725D01*
X130336255Y-88482025D01*
X130338881Y-88489920D01*
X130338882Y-88489923D01*
X130353517Y-88533917D01*
X130389402Y-88641791D01*
X130476624Y-88785812D01*
X130593586Y-88906929D01*
X130600555Y-88911490D01*
X130600557Y-88911491D01*
X130727503Y-88994563D01*
X130727506Y-88994564D01*
X130734475Y-88999125D01*
X130892289Y-89057815D01*
X130900543Y-89058916D01*
X130900546Y-89058917D01*
X131050928Y-89078982D01*
X131050932Y-89078982D01*
X131059183Y-89080083D01*
X131167053Y-89070266D01*
X131218570Y-89065578D01*
X131218572Y-89065578D01*
X131226864Y-89064823D01*
X131386997Y-89012793D01*
X131531623Y-88926578D01*
X131653554Y-88810465D01*
X131669934Y-88785812D01*
X131742120Y-88677163D01*
X131746731Y-88670223D01*
X131806521Y-88512823D01*
X131810639Y-88483527D01*
X131822963Y-88395836D01*
X131829955Y-88346088D01*
X131830249Y-88325000D01*
X131811481Y-88157676D01*
X131756108Y-87998668D01*
X131666884Y-87855879D01*
X131600922Y-87789455D01*
X131554110Y-87742315D01*
X131548242Y-87736406D01*
X131541212Y-87731945D01*
X131541210Y-87731943D01*
X131413112Y-87650650D01*
X131413110Y-87650649D01*
X131406079Y-87646187D01*
X131398233Y-87643393D01*
X131255304Y-87592498D01*
X131255301Y-87592497D01*
X131247462Y-87589706D01*
X131239199Y-87588721D01*
X131239196Y-87588720D01*
X131144685Y-87577450D01*
X131080273Y-87569769D01*
X131071995Y-87570639D01*
X131071993Y-87570639D01*
X130996547Y-87578569D01*
X130912821Y-87587369D01*
X130753431Y-87641630D01*
X130610022Y-87729856D01*
X130557598Y-87781194D01*
X130533613Y-87804682D01*
X130489724Y-87847661D01*
X130398515Y-87989190D01*
X130340927Y-88147409D01*
X130339884Y-88155668D01*
X130339883Y-88155671D01*
X130331998Y-88218094D01*
X130319825Y-88314455D01*
X126298111Y-88314455D01*
X126328554Y-88285465D01*
X126344934Y-88260812D01*
X126417120Y-88152163D01*
X126421731Y-88145223D01*
X126481521Y-87987823D01*
X126504955Y-87821088D01*
X126505249Y-87800000D01*
X126486481Y-87632676D01*
X126431108Y-87473668D01*
X126341884Y-87330879D01*
X126223242Y-87211406D01*
X126216212Y-87206945D01*
X126216210Y-87206943D01*
X126088112Y-87125650D01*
X126088110Y-87125649D01*
X126081079Y-87121187D01*
X126073233Y-87118393D01*
X125930304Y-87067498D01*
X125930301Y-87067497D01*
X125922462Y-87064706D01*
X125914199Y-87063721D01*
X125914196Y-87063720D01*
X125819685Y-87052450D01*
X125755273Y-87044769D01*
X125746995Y-87045639D01*
X125746993Y-87045639D01*
X125671547Y-87053569D01*
X125587821Y-87062369D01*
X125428431Y-87116630D01*
X125285022Y-87204856D01*
X125164724Y-87322661D01*
X125073515Y-87464190D01*
X125015927Y-87622409D01*
X125014884Y-87630668D01*
X125014883Y-87630671D01*
X125013499Y-87641630D01*
X124994825Y-87789455D01*
X121204066Y-87789455D01*
X121186481Y-87632676D01*
X121131108Y-87473668D01*
X121041884Y-87330879D01*
X120923242Y-87211406D01*
X120916212Y-87206945D01*
X120916210Y-87206943D01*
X120788112Y-87125650D01*
X120788110Y-87125649D01*
X120781079Y-87121187D01*
X120773233Y-87118393D01*
X120630304Y-87067498D01*
X120630301Y-87067497D01*
X120622462Y-87064706D01*
X120614199Y-87063721D01*
X120614196Y-87063720D01*
X120519685Y-87052450D01*
X120455273Y-87044769D01*
X120446995Y-87045639D01*
X120446993Y-87045639D01*
X120371547Y-87053569D01*
X120287821Y-87062369D01*
X120128431Y-87116630D01*
X119985022Y-87204856D01*
X119864724Y-87322661D01*
X119773515Y-87464190D01*
X119715927Y-87622409D01*
X119714884Y-87630668D01*
X119714883Y-87630671D01*
X119713499Y-87641630D01*
X119694825Y-87789455D01*
X111150500Y-87789455D01*
X111150500Y-86489455D01*
X132394825Y-86489455D01*
X132395637Y-86497737D01*
X132395637Y-86497741D01*
X132398381Y-86525725D01*
X132411255Y-86657025D01*
X132413881Y-86664920D01*
X132413882Y-86664923D01*
X132454756Y-86787793D01*
X132464402Y-86816791D01*
X132551624Y-86960812D01*
X132668586Y-87081929D01*
X132675555Y-87086490D01*
X132675557Y-87086491D01*
X132802503Y-87169563D01*
X132802506Y-87169564D01*
X132809475Y-87174125D01*
X132967289Y-87232815D01*
X132975543Y-87233916D01*
X132975546Y-87233917D01*
X133125928Y-87253982D01*
X133125932Y-87253982D01*
X133134183Y-87255083D01*
X133242053Y-87245266D01*
X133293570Y-87240578D01*
X133293572Y-87240578D01*
X133301864Y-87239823D01*
X133461997Y-87187793D01*
X133606623Y-87101578D01*
X133728554Y-86985465D01*
X133744934Y-86960812D01*
X133815682Y-86854328D01*
X133821731Y-86845223D01*
X133881521Y-86687823D01*
X133904955Y-86521088D01*
X133905249Y-86500000D01*
X133886481Y-86332676D01*
X133831108Y-86173668D01*
X133741884Y-86030879D01*
X133636549Y-85924806D01*
X133629110Y-85917315D01*
X133623242Y-85911406D01*
X133616212Y-85906945D01*
X133616210Y-85906943D01*
X133488112Y-85825650D01*
X133488110Y-85825649D01*
X133481079Y-85821187D01*
X133468734Y-85816791D01*
X133330304Y-85767498D01*
X133330301Y-85767497D01*
X133322462Y-85764706D01*
X133314199Y-85763721D01*
X133314196Y-85763720D01*
X133217354Y-85752172D01*
X133155273Y-85744769D01*
X133146995Y-85745639D01*
X133146993Y-85745639D01*
X133071547Y-85753569D01*
X132987821Y-85762369D01*
X132828431Y-85816630D01*
X132685022Y-85904856D01*
X132649315Y-85939823D01*
X132596842Y-85991209D01*
X132564724Y-86022661D01*
X132473515Y-86164190D01*
X132470667Y-86172016D01*
X132470666Y-86172017D01*
X132467202Y-86181534D01*
X132415927Y-86322409D01*
X132414884Y-86330668D01*
X132414883Y-86330671D01*
X132406998Y-86393094D01*
X132394825Y-86489455D01*
X111150500Y-86489455D01*
X111150500Y-84989455D01*
X130994825Y-84989455D01*
X130995637Y-84997737D01*
X130995637Y-84997741D01*
X130999063Y-85032676D01*
X131011255Y-85157025D01*
X131013881Y-85164920D01*
X131013882Y-85164923D01*
X131046926Y-85264257D01*
X131064402Y-85316791D01*
X131151624Y-85460812D01*
X131157412Y-85466805D01*
X131157413Y-85466807D01*
X131193989Y-85504682D01*
X131268586Y-85581929D01*
X131275555Y-85586490D01*
X131275557Y-85586491D01*
X131402503Y-85669563D01*
X131402506Y-85669564D01*
X131409475Y-85674125D01*
X131417285Y-85677029D01*
X131417286Y-85677030D01*
X131446227Y-85687793D01*
X131567289Y-85732815D01*
X131575543Y-85733916D01*
X131575546Y-85733917D01*
X131725928Y-85753982D01*
X131725932Y-85753982D01*
X131734183Y-85755083D01*
X131847516Y-85744769D01*
X131893570Y-85740578D01*
X131893572Y-85740578D01*
X131901864Y-85739823D01*
X132061997Y-85687793D01*
X132206623Y-85601578D01*
X132324364Y-85489455D01*
X135294825Y-85489455D01*
X135295637Y-85497737D01*
X135295637Y-85497741D01*
X135298204Y-85523916D01*
X135311255Y-85657025D01*
X135313881Y-85664920D01*
X135313882Y-85664923D01*
X135357431Y-85795836D01*
X135364402Y-85816791D01*
X135451624Y-85960812D01*
X135568586Y-86081929D01*
X135575555Y-86086490D01*
X135575557Y-86086491D01*
X135702503Y-86169563D01*
X135702506Y-86169564D01*
X135709475Y-86174125D01*
X135867289Y-86232815D01*
X135875543Y-86233916D01*
X135875546Y-86233917D01*
X136025928Y-86253982D01*
X136025932Y-86253982D01*
X136034183Y-86255083D01*
X136142053Y-86245266D01*
X136193570Y-86240578D01*
X136193572Y-86240578D01*
X136201864Y-86239823D01*
X136361997Y-86187793D01*
X136506623Y-86101578D01*
X136628554Y-85985465D01*
X136644934Y-85960812D01*
X136717120Y-85852163D01*
X136721731Y-85845223D01*
X136781521Y-85687823D01*
X136782828Y-85678528D01*
X136796404Y-85581929D01*
X136804955Y-85521088D01*
X136805249Y-85500000D01*
X136786481Y-85332676D01*
X136736606Y-85189455D01*
X143994825Y-85189455D01*
X143995637Y-85197737D01*
X143995637Y-85197741D01*
X144002159Y-85264257D01*
X144011255Y-85357025D01*
X144013881Y-85364920D01*
X144013882Y-85364923D01*
X144055892Y-85491209D01*
X144064402Y-85516791D01*
X144151624Y-85660812D01*
X144157412Y-85666805D01*
X144157413Y-85666807D01*
X144167447Y-85677197D01*
X144268586Y-85781929D01*
X144275555Y-85786490D01*
X144275557Y-85786491D01*
X144402503Y-85869563D01*
X144402506Y-85869564D01*
X144409475Y-85874125D01*
X144567289Y-85932815D01*
X144575543Y-85933916D01*
X144575546Y-85933917D01*
X144725928Y-85953982D01*
X144725932Y-85953982D01*
X144734183Y-85955083D01*
X144842053Y-85945266D01*
X144893570Y-85940578D01*
X144893572Y-85940578D01*
X144901864Y-85939823D01*
X145061997Y-85887793D01*
X145185876Y-85813946D01*
X145199472Y-85805841D01*
X145199473Y-85805840D01*
X145206623Y-85801578D01*
X145328554Y-85685465D01*
X145344934Y-85660812D01*
X145417120Y-85552163D01*
X145421731Y-85545223D01*
X145481521Y-85387823D01*
X145502676Y-85237304D01*
X148891834Y-85237304D01*
X148892646Y-85245586D01*
X148892646Y-85245590D01*
X148895390Y-85273574D01*
X148908264Y-85404874D01*
X148961411Y-85564640D01*
X148965726Y-85571765D01*
X148981347Y-85597558D01*
X149002865Y-85671623D01*
X148984468Y-85746525D01*
X148979140Y-85755462D01*
X148973515Y-85764190D01*
X148915927Y-85922409D01*
X148914884Y-85930668D01*
X148914883Y-85930671D01*
X148911895Y-85954328D01*
X148894825Y-86089455D01*
X148895637Y-86097737D01*
X148895637Y-86097741D01*
X148898381Y-86125725D01*
X148911255Y-86257025D01*
X148913881Y-86264920D01*
X148913882Y-86264923D01*
X148933005Y-86322409D01*
X148964402Y-86416791D01*
X149051624Y-86560812D01*
X149168586Y-86681929D01*
X149175555Y-86686490D01*
X149175557Y-86686491D01*
X149302503Y-86769563D01*
X149302506Y-86769564D01*
X149309475Y-86774125D01*
X149467289Y-86832815D01*
X149475543Y-86833916D01*
X149475546Y-86833917D01*
X149625928Y-86853982D01*
X149625932Y-86853982D01*
X149634183Y-86855083D01*
X149742527Y-86845223D01*
X149793570Y-86840578D01*
X149793572Y-86840578D01*
X149801864Y-86839823D01*
X149961997Y-86787793D01*
X150106623Y-86701578D01*
X150228554Y-86585465D01*
X150244934Y-86560812D01*
X150317120Y-86452163D01*
X150321731Y-86445223D01*
X150381521Y-86287823D01*
X150386123Y-86255083D01*
X150396179Y-86183527D01*
X150404955Y-86121088D01*
X150405249Y-86100000D01*
X150386481Y-85932676D01*
X150331108Y-85773668D01*
X150317674Y-85752169D01*
X150295125Y-85678414D01*
X150311511Y-85605105D01*
X150314126Y-85600016D01*
X150318740Y-85593072D01*
X150378530Y-85435672D01*
X150401964Y-85268937D01*
X150402258Y-85247849D01*
X150383490Y-85080525D01*
X150328117Y-84921517D01*
X150238893Y-84778728D01*
X150120251Y-84659255D01*
X150113221Y-84654794D01*
X150113219Y-84654792D01*
X149985121Y-84573499D01*
X149985119Y-84573498D01*
X149978088Y-84569036D01*
X149970242Y-84566242D01*
X149827313Y-84515347D01*
X149827310Y-84515346D01*
X149819471Y-84512555D01*
X149811208Y-84511570D01*
X149811205Y-84511569D01*
X149716694Y-84500299D01*
X149652282Y-84492618D01*
X149644004Y-84493488D01*
X149644002Y-84493488D01*
X149568556Y-84501418D01*
X149484830Y-84510218D01*
X149325440Y-84564479D01*
X149318344Y-84568845D01*
X149318343Y-84568845D01*
X149298425Y-84581099D01*
X149182031Y-84652705D01*
X149152592Y-84681534D01*
X149068667Y-84763720D01*
X149061733Y-84770510D01*
X148970524Y-84912039D01*
X148912936Y-85070258D01*
X148911893Y-85078517D01*
X148911892Y-85078520D01*
X148904007Y-85140943D01*
X148891834Y-85237304D01*
X145502676Y-85237304D01*
X145504955Y-85221088D01*
X145505249Y-85200000D01*
X145486481Y-85032676D01*
X145431108Y-84873668D01*
X145341884Y-84730879D01*
X145223242Y-84611406D01*
X145216212Y-84606945D01*
X145216210Y-84606943D01*
X145088112Y-84525650D01*
X145088110Y-84525649D01*
X145081079Y-84521187D01*
X145068852Y-84516833D01*
X144930304Y-84467498D01*
X144930301Y-84467497D01*
X144922462Y-84464706D01*
X144914199Y-84463721D01*
X144914196Y-84463720D01*
X144819685Y-84452450D01*
X144755273Y-84444769D01*
X144746995Y-84445639D01*
X144746993Y-84445639D01*
X144671547Y-84453569D01*
X144587821Y-84462369D01*
X144428431Y-84516630D01*
X144421335Y-84520996D01*
X144421334Y-84520996D01*
X144355017Y-84561795D01*
X144285022Y-84604856D01*
X144240618Y-84648340D01*
X144190615Y-84697307D01*
X144164724Y-84722661D01*
X144073515Y-84864190D01*
X144070667Y-84872016D01*
X144070666Y-84872017D01*
X144058647Y-84905038D01*
X144015927Y-85022409D01*
X144014884Y-85030668D01*
X144014883Y-85030671D01*
X144007539Y-85088809D01*
X143994825Y-85189455D01*
X136736606Y-85189455D01*
X136731108Y-85173668D01*
X136641884Y-85030879D01*
X136523242Y-84911406D01*
X136458784Y-84870500D01*
X136388112Y-84825650D01*
X136388110Y-84825649D01*
X136381079Y-84821187D01*
X136373233Y-84818393D01*
X136230304Y-84767498D01*
X136230301Y-84767497D01*
X136222462Y-84764706D01*
X136214199Y-84763721D01*
X136214196Y-84763720D01*
X136119685Y-84752450D01*
X136055273Y-84744769D01*
X136046995Y-84745639D01*
X136046993Y-84745639D01*
X135971547Y-84753569D01*
X135887821Y-84762369D01*
X135728431Y-84816630D01*
X135721335Y-84820996D01*
X135721334Y-84820996D01*
X135668892Y-84853259D01*
X135585022Y-84904856D01*
X135559976Y-84929383D01*
X135487865Y-85000000D01*
X135464724Y-85022661D01*
X135373515Y-85164190D01*
X135315927Y-85322409D01*
X135314884Y-85330668D01*
X135314883Y-85330671D01*
X135313045Y-85345223D01*
X135294825Y-85489455D01*
X132324364Y-85489455D01*
X132328554Y-85485465D01*
X132344934Y-85460812D01*
X132417120Y-85352163D01*
X132421731Y-85345223D01*
X132481521Y-85187823D01*
X132483511Y-85173668D01*
X132504303Y-85025725D01*
X132504955Y-85021088D01*
X132505249Y-85000000D01*
X132486481Y-84832676D01*
X132431108Y-84673668D01*
X132341884Y-84530879D01*
X132252002Y-84440367D01*
X132229110Y-84417315D01*
X132223242Y-84411406D01*
X132216212Y-84406945D01*
X132216210Y-84406943D01*
X132088112Y-84325650D01*
X132088110Y-84325649D01*
X132081079Y-84321187D01*
X132073233Y-84318393D01*
X131930304Y-84267498D01*
X131930301Y-84267497D01*
X131922462Y-84264706D01*
X131914199Y-84263721D01*
X131914196Y-84263720D01*
X131797487Y-84249803D01*
X131755273Y-84244769D01*
X131746995Y-84245639D01*
X131746993Y-84245639D01*
X131671547Y-84253569D01*
X131587821Y-84262369D01*
X131428431Y-84316630D01*
X131421335Y-84320996D01*
X131421334Y-84320996D01*
X131308231Y-84390578D01*
X131285022Y-84404856D01*
X131227180Y-84461499D01*
X131170883Y-84516630D01*
X131164724Y-84522661D01*
X131160213Y-84529661D01*
X131160212Y-84529662D01*
X131131961Y-84573499D01*
X131073515Y-84664190D01*
X131015927Y-84822409D01*
X131014884Y-84830668D01*
X131014883Y-84830671D01*
X131011533Y-84857189D01*
X130994825Y-84989455D01*
X111150500Y-84989455D01*
X111150500Y-83739455D01*
X126944825Y-83739455D01*
X126945637Y-83747737D01*
X126945637Y-83747741D01*
X126953661Y-83829578D01*
X126961255Y-83907025D01*
X126963881Y-83914920D01*
X126963882Y-83914923D01*
X126992903Y-84002163D01*
X127014402Y-84066791D01*
X127101624Y-84210812D01*
X127107412Y-84216805D01*
X127107413Y-84216807D01*
X127125431Y-84235465D01*
X127218586Y-84331929D01*
X127225555Y-84336490D01*
X127225557Y-84336491D01*
X127352503Y-84419563D01*
X127352506Y-84419564D01*
X127359475Y-84424125D01*
X127367285Y-84427029D01*
X127367286Y-84427030D01*
X127417325Y-84445639D01*
X127517289Y-84482815D01*
X127525543Y-84483916D01*
X127525546Y-84483917D01*
X127675928Y-84503982D01*
X127675932Y-84503982D01*
X127684183Y-84505083D01*
X127792053Y-84495266D01*
X127843570Y-84490578D01*
X127843572Y-84490578D01*
X127851864Y-84489823D01*
X128011997Y-84437793D01*
X128156623Y-84351578D01*
X128278554Y-84235465D01*
X128294934Y-84210812D01*
X128367120Y-84102163D01*
X128371731Y-84095223D01*
X128431521Y-83937823D01*
X128454955Y-83771088D01*
X128455249Y-83750000D01*
X128442850Y-83639455D01*
X151094825Y-83639455D01*
X151095637Y-83647737D01*
X151095637Y-83647741D01*
X151099800Y-83690197D01*
X151111255Y-83807025D01*
X151113881Y-83814920D01*
X151113882Y-83814923D01*
X151147148Y-83914923D01*
X151164402Y-83966791D01*
X151251624Y-84110812D01*
X151368586Y-84231929D01*
X151375555Y-84236490D01*
X151375557Y-84236491D01*
X151502503Y-84319563D01*
X151502506Y-84319564D01*
X151509475Y-84324125D01*
X151517285Y-84327029D01*
X151517286Y-84327030D01*
X151534756Y-84333527D01*
X151667289Y-84382815D01*
X151675543Y-84383916D01*
X151675546Y-84383917D01*
X151825928Y-84403982D01*
X151825932Y-84403982D01*
X151834183Y-84405083D01*
X151942053Y-84395266D01*
X151993570Y-84390578D01*
X151993572Y-84390578D01*
X152001864Y-84389823D01*
X152161997Y-84337793D01*
X152288521Y-84262369D01*
X152299472Y-84255841D01*
X152299473Y-84255840D01*
X152306623Y-84251578D01*
X152428554Y-84135465D01*
X152444934Y-84110812D01*
X152517120Y-84002163D01*
X152521731Y-83995223D01*
X152581521Y-83837823D01*
X152604955Y-83671088D01*
X152605249Y-83650000D01*
X152604066Y-83639455D01*
X153894825Y-83639455D01*
X153895637Y-83647737D01*
X153895637Y-83647741D01*
X153899800Y-83690197D01*
X153911255Y-83807025D01*
X153913881Y-83814920D01*
X153913882Y-83814923D01*
X153947148Y-83914923D01*
X153964402Y-83966791D01*
X154051624Y-84110812D01*
X154168586Y-84231929D01*
X154175555Y-84236490D01*
X154175557Y-84236491D01*
X154302503Y-84319563D01*
X154302506Y-84319564D01*
X154309475Y-84324125D01*
X154317285Y-84327029D01*
X154317286Y-84327030D01*
X154334756Y-84333527D01*
X154467289Y-84382815D01*
X154475543Y-84383916D01*
X154475546Y-84383917D01*
X154625928Y-84403982D01*
X154625932Y-84403982D01*
X154634183Y-84405083D01*
X154742053Y-84395266D01*
X154793570Y-84390578D01*
X154793572Y-84390578D01*
X154801864Y-84389823D01*
X154961997Y-84337793D01*
X155088521Y-84262369D01*
X155099472Y-84255841D01*
X155099473Y-84255840D01*
X155106623Y-84251578D01*
X155228554Y-84135465D01*
X155244934Y-84110812D01*
X155275607Y-84064646D01*
X163669500Y-84064646D01*
X163671124Y-84072286D01*
X163671124Y-84072287D01*
X163703783Y-84225934D01*
X163708856Y-84249803D01*
X163785849Y-84422730D01*
X163796793Y-84437793D01*
X163864424Y-84530879D01*
X163897112Y-84575871D01*
X163929303Y-84604856D01*
X164031979Y-84697307D01*
X164031984Y-84697311D01*
X164037784Y-84702533D01*
X164044544Y-84706436D01*
X164044547Y-84706438D01*
X164076646Y-84724970D01*
X164201716Y-84797179D01*
X164381744Y-84855674D01*
X164389511Y-84856490D01*
X164389514Y-84856491D01*
X164459116Y-84863806D01*
X164522808Y-84870500D01*
X165717192Y-84870500D01*
X165780884Y-84863806D01*
X165850486Y-84856491D01*
X165850489Y-84856490D01*
X165858256Y-84855674D01*
X166038284Y-84797179D01*
X166163354Y-84724970D01*
X166195453Y-84706438D01*
X166195456Y-84706436D01*
X166202216Y-84702533D01*
X166208016Y-84697311D01*
X166208021Y-84697307D01*
X166310697Y-84604856D01*
X166342888Y-84575871D01*
X166375577Y-84530879D01*
X166443207Y-84437793D01*
X166454151Y-84422730D01*
X166531144Y-84249803D01*
X166536218Y-84225934D01*
X166568876Y-84072287D01*
X166568876Y-84072286D01*
X166570500Y-84064646D01*
X166570500Y-83875354D01*
X166557655Y-83814923D01*
X166532768Y-83697836D01*
X166532767Y-83697833D01*
X166531144Y-83690197D01*
X166454151Y-83517270D01*
X166391860Y-83431534D01*
X166347480Y-83370449D01*
X166347479Y-83370447D01*
X166342888Y-83364129D01*
X166202216Y-83237467D01*
X166204016Y-83235468D01*
X166163965Y-83186032D01*
X166151882Y-83109856D01*
X166179505Y-83037845D01*
X166191891Y-83022936D01*
X166234885Y-82977550D01*
X166241228Y-82966630D01*
X166315510Y-82838745D01*
X166315511Y-82838742D01*
X166319856Y-82831262D01*
X166348275Y-82737432D01*
X166366387Y-82677632D01*
X166366388Y-82677629D01*
X166368895Y-82669350D01*
X166379370Y-82500499D01*
X166350720Y-82333767D01*
X166318064Y-82257019D01*
X166287871Y-82186062D01*
X166287870Y-82186060D01*
X166284482Y-82178098D01*
X166184209Y-82041842D01*
X166055280Y-81932308D01*
X165904611Y-81855373D01*
X165740283Y-81815162D01*
X165733665Y-81814751D01*
X165733662Y-81814751D01*
X165731904Y-81814642D01*
X165731898Y-81814642D01*
X165729612Y-81814500D01*
X165607637Y-81814500D01*
X165603360Y-81814999D01*
X165603354Y-81814999D01*
X165552470Y-81820932D01*
X165481963Y-81829152D01*
X165322939Y-81886875D01*
X165315704Y-81891619D01*
X165315703Y-81891619D01*
X165245048Y-81937943D01*
X165181460Y-81979633D01*
X165065115Y-82102450D01*
X165060767Y-82109936D01*
X165060766Y-82109937D01*
X164984662Y-82240960D01*
X164980144Y-82248738D01*
X164977636Y-82257019D01*
X164934331Y-82400000D01*
X164931105Y-82410650D01*
X164920630Y-82579501D01*
X164949280Y-82746233D01*
X164952667Y-82754194D01*
X164952668Y-82754196D01*
X164998608Y-82862161D01*
X165009409Y-82938529D01*
X164980579Y-83010067D01*
X164919843Y-83057604D01*
X164861504Y-83069500D01*
X164522808Y-83069500D01*
X164463865Y-83075695D01*
X164389514Y-83083509D01*
X164389511Y-83083510D01*
X164381744Y-83084326D01*
X164201716Y-83142821D01*
X164126872Y-83186032D01*
X164044547Y-83233562D01*
X164044544Y-83233564D01*
X164037784Y-83237467D01*
X164031984Y-83242689D01*
X164031979Y-83242693D01*
X163989570Y-83280879D01*
X163897112Y-83364129D01*
X163892521Y-83370447D01*
X163892520Y-83370449D01*
X163848140Y-83431534D01*
X163785849Y-83517270D01*
X163708856Y-83690197D01*
X163707233Y-83697833D01*
X163707232Y-83697836D01*
X163682345Y-83814923D01*
X163669500Y-83875354D01*
X163669500Y-84064646D01*
X155275607Y-84064646D01*
X155317120Y-84002163D01*
X155321731Y-83995223D01*
X155381521Y-83837823D01*
X155404955Y-83671088D01*
X155405249Y-83650000D01*
X155386481Y-83482676D01*
X155331108Y-83323668D01*
X155241884Y-83180879D01*
X155123242Y-83061406D01*
X155116212Y-83056945D01*
X155116210Y-83056943D01*
X154988112Y-82975650D01*
X154988110Y-82975649D01*
X154981079Y-82971187D01*
X154973233Y-82968393D01*
X154830304Y-82917498D01*
X154830301Y-82917497D01*
X154822462Y-82914706D01*
X154814199Y-82913721D01*
X154814196Y-82913720D01*
X154715089Y-82901902D01*
X154655273Y-82894769D01*
X154646995Y-82895639D01*
X154646993Y-82895639D01*
X154587407Y-82901902D01*
X154487821Y-82912369D01*
X154328431Y-82966630D01*
X154321335Y-82970996D01*
X154321334Y-82970996D01*
X154318659Y-82972642D01*
X154185022Y-83054856D01*
X154152462Y-83086741D01*
X154097660Y-83140408D01*
X154064724Y-83172661D01*
X153973515Y-83314190D01*
X153915927Y-83472409D01*
X153914884Y-83480668D01*
X153914883Y-83480671D01*
X153911058Y-83510954D01*
X153894825Y-83639455D01*
X152604066Y-83639455D01*
X152586481Y-83482676D01*
X152531108Y-83323668D01*
X152441884Y-83180879D01*
X152323242Y-83061406D01*
X152316212Y-83056945D01*
X152316210Y-83056943D01*
X152188112Y-82975650D01*
X152188110Y-82975649D01*
X152181079Y-82971187D01*
X152173233Y-82968393D01*
X152030304Y-82917498D01*
X152030301Y-82917497D01*
X152022462Y-82914706D01*
X152014199Y-82913721D01*
X152014196Y-82913720D01*
X151915089Y-82901902D01*
X151855273Y-82894769D01*
X151846995Y-82895639D01*
X151846993Y-82895639D01*
X151787407Y-82901902D01*
X151687821Y-82912369D01*
X151528431Y-82966630D01*
X151521335Y-82970996D01*
X151521334Y-82970996D01*
X151518659Y-82972642D01*
X151385022Y-83054856D01*
X151352462Y-83086741D01*
X151297660Y-83140408D01*
X151264724Y-83172661D01*
X151173515Y-83314190D01*
X151115927Y-83472409D01*
X151114884Y-83480668D01*
X151114883Y-83480671D01*
X151111058Y-83510954D01*
X151094825Y-83639455D01*
X128442850Y-83639455D01*
X128436481Y-83582676D01*
X128381108Y-83423668D01*
X128291884Y-83280879D01*
X128190803Y-83179090D01*
X128152472Y-83112161D01*
X128152742Y-83035033D01*
X128193775Y-82966199D01*
X128278554Y-82885465D01*
X128294934Y-82860812D01*
X128367120Y-82752163D01*
X128371731Y-82745223D01*
X128431521Y-82587823D01*
X128454955Y-82421088D01*
X128455249Y-82400000D01*
X128436481Y-82232676D01*
X128381108Y-82073668D01*
X128291884Y-81930879D01*
X128190803Y-81829090D01*
X128152472Y-81762161D01*
X128152742Y-81685033D01*
X128193775Y-81616199D01*
X128278554Y-81535465D01*
X128294934Y-81510812D01*
X128367120Y-81402163D01*
X128371731Y-81395223D01*
X128431521Y-81237823D01*
X128452374Y-81089455D01*
X155694825Y-81089455D01*
X155695637Y-81097737D01*
X155695637Y-81097741D01*
X155698381Y-81125725D01*
X155711255Y-81257025D01*
X155764402Y-81416791D01*
X155851624Y-81560812D01*
X155968586Y-81681929D01*
X155975555Y-81686490D01*
X155975557Y-81686491D01*
X156102503Y-81769563D01*
X156102506Y-81769564D01*
X156109475Y-81774125D01*
X156267289Y-81832815D01*
X156275543Y-81833916D01*
X156275546Y-81833917D01*
X156425928Y-81853982D01*
X156425932Y-81853982D01*
X156434183Y-81855083D01*
X156542053Y-81845266D01*
X156593570Y-81840578D01*
X156593572Y-81840578D01*
X156601864Y-81839823D01*
X156761997Y-81787793D01*
X156906623Y-81701578D01*
X157028554Y-81585465D01*
X157044934Y-81560812D01*
X157117120Y-81452163D01*
X157121731Y-81445223D01*
X157181521Y-81287823D01*
X157204955Y-81121088D01*
X157205249Y-81100000D01*
X157186481Y-80932676D01*
X157131108Y-80773668D01*
X157041884Y-80630879D01*
X156923242Y-80511406D01*
X156916212Y-80506945D01*
X156916210Y-80506943D01*
X156788112Y-80425650D01*
X156788110Y-80425649D01*
X156781079Y-80421187D01*
X156773233Y-80418393D01*
X156630304Y-80367498D01*
X156630301Y-80367497D01*
X156622462Y-80364706D01*
X156614199Y-80363721D01*
X156614196Y-80363720D01*
X156519685Y-80352450D01*
X156455273Y-80344769D01*
X156446995Y-80345639D01*
X156446993Y-80345639D01*
X156371547Y-80353569D01*
X156287821Y-80362369D01*
X156128431Y-80416630D01*
X156121335Y-80420996D01*
X156121334Y-80420996D01*
X156066296Y-80454856D01*
X155985022Y-80504856D01*
X155864724Y-80622661D01*
X155773515Y-80764190D01*
X155715927Y-80922409D01*
X155714884Y-80930668D01*
X155714883Y-80930671D01*
X155706998Y-80993094D01*
X155694825Y-81089455D01*
X128452374Y-81089455D01*
X128454955Y-81071088D01*
X128455249Y-81050000D01*
X128436481Y-80882676D01*
X128381108Y-80723668D01*
X128291884Y-80580879D01*
X128173242Y-80461406D01*
X128166212Y-80456945D01*
X128166210Y-80456943D01*
X128038112Y-80375650D01*
X128038110Y-80375649D01*
X128031079Y-80371187D01*
X128023233Y-80368393D01*
X127880304Y-80317498D01*
X127880301Y-80317497D01*
X127872462Y-80314706D01*
X127864199Y-80313721D01*
X127864196Y-80313720D01*
X127769685Y-80302450D01*
X127705273Y-80294769D01*
X127696995Y-80295639D01*
X127696993Y-80295639D01*
X127621547Y-80303569D01*
X127537821Y-80312369D01*
X127378431Y-80366630D01*
X127371335Y-80370996D01*
X127371334Y-80370996D01*
X127282496Y-80425650D01*
X127235022Y-80454856D01*
X127114724Y-80572661D01*
X127023515Y-80714190D01*
X126965927Y-80872409D01*
X126964884Y-80880668D01*
X126964883Y-80880671D01*
X126960599Y-80914585D01*
X126944825Y-81039455D01*
X126945637Y-81047737D01*
X126945637Y-81047741D01*
X126948381Y-81075725D01*
X126961255Y-81207025D01*
X126963881Y-81214920D01*
X126963882Y-81214923D01*
X126977888Y-81257025D01*
X127014402Y-81366791D01*
X127101624Y-81510812D01*
X127209621Y-81622645D01*
X127247012Y-81690100D01*
X127245666Y-81767216D01*
X127206688Y-81832603D01*
X127114724Y-81922661D01*
X127023515Y-82064190D01*
X127020667Y-82072016D01*
X127020666Y-82072017D01*
X127009589Y-82102450D01*
X126965927Y-82222409D01*
X126964884Y-82230668D01*
X126964883Y-82230671D01*
X126963546Y-82241255D01*
X126944825Y-82389455D01*
X126945637Y-82397737D01*
X126945637Y-82397741D01*
X126948381Y-82425725D01*
X126961255Y-82557025D01*
X126963881Y-82564920D01*
X126963882Y-82564923D01*
X127011774Y-82708891D01*
X127014402Y-82716791D01*
X127101624Y-82860812D01*
X127209621Y-82972645D01*
X127247012Y-83040100D01*
X127245666Y-83117216D01*
X127206688Y-83182603D01*
X127114724Y-83272661D01*
X127023515Y-83414190D01*
X126965927Y-83572409D01*
X126964884Y-83580668D01*
X126964883Y-83580671D01*
X126958501Y-83631194D01*
X126944825Y-83739455D01*
X111150500Y-83739455D01*
X111150500Y-78989455D01*
X137194825Y-78989455D01*
X137195637Y-78997737D01*
X137195637Y-78997741D01*
X137201106Y-79053519D01*
X137211255Y-79157025D01*
X137213881Y-79164920D01*
X137213882Y-79164923D01*
X137221500Y-79187823D01*
X137264402Y-79316791D01*
X137351624Y-79460812D01*
X137468586Y-79581929D01*
X137475555Y-79586490D01*
X137475557Y-79586491D01*
X137602503Y-79669563D01*
X137602506Y-79669564D01*
X137609475Y-79674125D01*
X137767289Y-79732815D01*
X137775543Y-79733916D01*
X137775546Y-79733917D01*
X137925928Y-79753982D01*
X137925932Y-79753982D01*
X137934183Y-79755083D01*
X138042053Y-79745266D01*
X138093570Y-79740578D01*
X138093572Y-79740578D01*
X138101864Y-79739823D01*
X138261997Y-79687793D01*
X138406623Y-79601578D01*
X138528554Y-79485465D01*
X138544934Y-79460812D01*
X138617120Y-79352163D01*
X138621731Y-79345223D01*
X138681521Y-79187823D01*
X138690419Y-79124515D01*
X138720557Y-79053519D01*
X138782154Y-79007103D01*
X138824464Y-78996867D01*
X138893571Y-78990578D01*
X138893574Y-78990577D01*
X138901864Y-78989823D01*
X139061997Y-78937793D01*
X139206623Y-78851578D01*
X139328554Y-78735465D01*
X139344934Y-78710812D01*
X139417120Y-78602163D01*
X139421731Y-78595223D01*
X139481521Y-78437823D01*
X139486155Y-78404856D01*
X139495188Y-78340578D01*
X139504955Y-78271088D01*
X139505249Y-78250000D01*
X139486481Y-78082676D01*
X139431108Y-77923668D01*
X139341884Y-77780879D01*
X139223242Y-77661406D01*
X139216212Y-77656945D01*
X139216210Y-77656943D01*
X139109865Y-77589455D01*
X139744825Y-77589455D01*
X139745637Y-77597737D01*
X139745637Y-77597741D01*
X139748381Y-77625725D01*
X139761255Y-77757025D01*
X139763881Y-77764920D01*
X139763882Y-77764923D01*
X139766456Y-77772661D01*
X139814402Y-77916791D01*
X139901624Y-78060812D01*
X139907412Y-78066805D01*
X139907413Y-78066807D01*
X139922738Y-78082676D01*
X140018586Y-78181929D01*
X140025555Y-78186490D01*
X140025557Y-78186491D01*
X140152503Y-78269563D01*
X140152506Y-78269564D01*
X140159475Y-78274125D01*
X140317289Y-78332815D01*
X140325543Y-78333916D01*
X140325546Y-78333917D01*
X140475928Y-78353982D01*
X140475932Y-78353982D01*
X140484183Y-78355083D01*
X140592053Y-78345266D01*
X140643570Y-78340578D01*
X140643572Y-78340578D01*
X140651864Y-78339823D01*
X140811997Y-78287793D01*
X140893084Y-78239455D01*
X141544825Y-78239455D01*
X141545637Y-78247737D01*
X141545637Y-78247741D01*
X141548224Y-78274125D01*
X141561255Y-78407025D01*
X141614402Y-78566791D01*
X141701624Y-78710812D01*
X141818586Y-78831929D01*
X141825555Y-78836490D01*
X141825557Y-78836491D01*
X141952503Y-78919563D01*
X141952506Y-78919564D01*
X141959475Y-78924125D01*
X142117289Y-78982815D01*
X142125543Y-78983916D01*
X142125546Y-78983917D01*
X142275928Y-79003982D01*
X142275932Y-79003982D01*
X142284183Y-79005083D01*
X142392053Y-78995266D01*
X142443570Y-78990578D01*
X142443572Y-78990578D01*
X142451864Y-78989823D01*
X142611997Y-78937793D01*
X142756623Y-78851578D01*
X142878554Y-78735465D01*
X142894934Y-78710812D01*
X142967120Y-78602163D01*
X142971731Y-78595223D01*
X143031521Y-78437823D01*
X143036155Y-78404856D01*
X143045188Y-78340578D01*
X143054955Y-78271088D01*
X143055249Y-78250000D01*
X143036481Y-78082676D01*
X142981108Y-77923668D01*
X142891884Y-77780879D01*
X142773242Y-77661406D01*
X142766212Y-77656945D01*
X142766210Y-77656943D01*
X142638112Y-77575650D01*
X142638110Y-77575649D01*
X142631079Y-77571187D01*
X142623233Y-77568393D01*
X142480304Y-77517498D01*
X142480301Y-77517497D01*
X142472462Y-77514706D01*
X142464199Y-77513721D01*
X142464196Y-77513720D01*
X142369685Y-77502450D01*
X142305273Y-77494769D01*
X142296995Y-77495639D01*
X142296993Y-77495639D01*
X142221547Y-77503569D01*
X142137821Y-77512369D01*
X141978431Y-77566630D01*
X141971335Y-77570996D01*
X141971334Y-77570996D01*
X141882374Y-77625725D01*
X141835022Y-77654856D01*
X141773202Y-77715395D01*
X141722626Y-77764923D01*
X141714724Y-77772661D01*
X141623515Y-77914190D01*
X141565927Y-78072409D01*
X141564884Y-78080668D01*
X141564883Y-78080671D01*
X141563552Y-78091209D01*
X141544825Y-78239455D01*
X140893084Y-78239455D01*
X140956623Y-78201578D01*
X141078554Y-78085465D01*
X141094934Y-78060812D01*
X141167120Y-77952163D01*
X141171731Y-77945223D01*
X141231521Y-77787823D01*
X141233328Y-77774970D01*
X141250209Y-77654856D01*
X141254955Y-77621088D01*
X141255249Y-77600000D01*
X141236481Y-77432676D01*
X141181108Y-77273668D01*
X141091884Y-77130879D01*
X140973242Y-77011406D01*
X140966212Y-77006945D01*
X140966210Y-77006943D01*
X140838112Y-76925650D01*
X140838110Y-76925649D01*
X140831079Y-76921187D01*
X140823233Y-76918393D01*
X140680304Y-76867498D01*
X140680301Y-76867497D01*
X140672462Y-76864706D01*
X140664199Y-76863721D01*
X140664196Y-76863720D01*
X140569685Y-76852450D01*
X140505273Y-76844769D01*
X140496995Y-76845639D01*
X140496993Y-76845639D01*
X140421547Y-76853569D01*
X140337821Y-76862369D01*
X140178431Y-76916630D01*
X140171335Y-76920996D01*
X140171334Y-76920996D01*
X140062709Y-76987823D01*
X140035022Y-77004856D01*
X139996090Y-77042981D01*
X139923632Y-77113938D01*
X139914724Y-77122661D01*
X139823515Y-77264190D01*
X139765927Y-77422409D01*
X139764884Y-77430668D01*
X139764883Y-77430671D01*
X139763120Y-77444627D01*
X139744825Y-77589455D01*
X139109865Y-77589455D01*
X139088112Y-77575650D01*
X139088110Y-77575649D01*
X139081079Y-77571187D01*
X139073233Y-77568393D01*
X138930304Y-77517498D01*
X138930301Y-77517497D01*
X138922462Y-77514706D01*
X138914199Y-77513721D01*
X138914196Y-77513720D01*
X138819685Y-77502450D01*
X138755273Y-77494769D01*
X138746995Y-77495639D01*
X138746993Y-77495639D01*
X138671547Y-77503569D01*
X138587821Y-77512369D01*
X138428431Y-77566630D01*
X138421335Y-77570996D01*
X138421334Y-77570996D01*
X138332374Y-77625725D01*
X138285022Y-77654856D01*
X138223202Y-77715395D01*
X138172626Y-77764923D01*
X138164724Y-77772661D01*
X138073515Y-77914190D01*
X138015927Y-78072409D01*
X138014883Y-78080670D01*
X138014883Y-78080672D01*
X138009478Y-78123461D01*
X137980337Y-78194872D01*
X137919394Y-78242145D01*
X137877229Y-78252972D01*
X137787821Y-78262369D01*
X137628431Y-78316630D01*
X137621335Y-78320996D01*
X137621334Y-78320996D01*
X137565927Y-78355083D01*
X137485022Y-78404856D01*
X137364724Y-78522661D01*
X137273515Y-78664190D01*
X137215927Y-78822409D01*
X137214884Y-78830668D01*
X137214883Y-78830671D01*
X137212242Y-78851578D01*
X137194825Y-78989455D01*
X111150500Y-78989455D01*
X111150500Y-76189455D01*
X148994825Y-76189455D01*
X148995637Y-76197737D01*
X148995637Y-76197741D01*
X149001743Y-76260012D01*
X149011255Y-76357025D01*
X149013881Y-76364920D01*
X149013882Y-76364923D01*
X149061774Y-76508891D01*
X149064402Y-76516791D01*
X149151624Y-76660812D01*
X149268586Y-76781929D01*
X149275555Y-76786490D01*
X149275557Y-76786491D01*
X149402503Y-76869563D01*
X149402506Y-76869564D01*
X149409475Y-76874125D01*
X149567289Y-76932815D01*
X149575543Y-76933916D01*
X149575546Y-76933917D01*
X149725928Y-76953982D01*
X149725932Y-76953982D01*
X149734183Y-76955083D01*
X149842053Y-76945266D01*
X149893570Y-76940578D01*
X149893572Y-76940578D01*
X149901864Y-76939823D01*
X150061997Y-76887793D01*
X150181746Y-76816408D01*
X150199472Y-76805841D01*
X150199473Y-76805840D01*
X150206623Y-76801578D01*
X150219353Y-76789455D01*
X152994825Y-76789455D01*
X152995637Y-76797737D01*
X152995637Y-76797741D01*
X153002203Y-76864706D01*
X153011255Y-76957025D01*
X153064402Y-77116791D01*
X153151624Y-77260812D01*
X153157412Y-77266805D01*
X153157413Y-77266807D01*
X153164039Y-77273668D01*
X153268586Y-77381929D01*
X153275555Y-77386490D01*
X153275557Y-77386491D01*
X153402503Y-77469563D01*
X153402506Y-77469564D01*
X153409475Y-77474125D01*
X153417285Y-77477029D01*
X153417286Y-77477030D01*
X153467325Y-77495639D01*
X153567289Y-77532815D01*
X153575543Y-77533916D01*
X153575546Y-77533917D01*
X153725928Y-77553982D01*
X153725932Y-77553982D01*
X153734183Y-77555083D01*
X153842053Y-77545266D01*
X153893570Y-77540578D01*
X153893572Y-77540578D01*
X153901864Y-77539823D01*
X154061997Y-77487793D01*
X154206623Y-77401578D01*
X154328554Y-77285465D01*
X154344934Y-77260812D01*
X154417120Y-77152163D01*
X154421731Y-77145223D01*
X154481521Y-76987823D01*
X154484556Y-76966233D01*
X154496575Y-76880712D01*
X154504955Y-76821088D01*
X154505249Y-76800000D01*
X154486481Y-76632676D01*
X154431108Y-76473668D01*
X154341884Y-76330879D01*
X154223242Y-76211406D01*
X154216212Y-76206945D01*
X154216210Y-76206943D01*
X154088112Y-76125650D01*
X154088110Y-76125649D01*
X154081079Y-76121187D01*
X154073233Y-76118393D01*
X153930304Y-76067498D01*
X153930301Y-76067497D01*
X153922462Y-76064706D01*
X153914199Y-76063721D01*
X153914196Y-76063720D01*
X153819685Y-76052450D01*
X153755273Y-76044769D01*
X153746995Y-76045639D01*
X153746993Y-76045639D01*
X153671547Y-76053569D01*
X153587821Y-76062369D01*
X153428431Y-76116630D01*
X153421335Y-76120996D01*
X153421334Y-76120996D01*
X153300783Y-76195160D01*
X153285022Y-76204856D01*
X153238451Y-76250462D01*
X153182759Y-76305000D01*
X153164724Y-76322661D01*
X153073515Y-76464190D01*
X153070667Y-76472016D01*
X153070666Y-76472017D01*
X153067202Y-76481534D01*
X153015927Y-76622409D01*
X153014884Y-76630668D01*
X153014883Y-76630671D01*
X153011976Y-76653685D01*
X152994825Y-76789455D01*
X150219353Y-76789455D01*
X150328554Y-76685465D01*
X150344934Y-76660812D01*
X150417120Y-76552163D01*
X150421731Y-76545223D01*
X150481521Y-76387823D01*
X150488532Y-76337943D01*
X150499484Y-76260012D01*
X150504955Y-76221088D01*
X150505168Y-76205815D01*
X150505184Y-76204682D01*
X150505184Y-76204678D01*
X150505249Y-76200000D01*
X150486481Y-76032676D01*
X150431108Y-75873668D01*
X150341884Y-75730879D01*
X150223242Y-75611406D01*
X150216212Y-75606945D01*
X150216210Y-75606943D01*
X150088112Y-75525650D01*
X150088110Y-75525649D01*
X150081079Y-75521187D01*
X150073233Y-75518393D01*
X149930304Y-75467498D01*
X149930301Y-75467497D01*
X149922462Y-75464706D01*
X149914199Y-75463721D01*
X149914196Y-75463720D01*
X149819685Y-75452450D01*
X149755273Y-75444769D01*
X149746995Y-75445639D01*
X149746993Y-75445639D01*
X149671547Y-75453569D01*
X149587821Y-75462369D01*
X149428431Y-75516630D01*
X149285022Y-75604856D01*
X149164724Y-75722661D01*
X149073515Y-75864190D01*
X149015927Y-76022409D01*
X149014884Y-76030668D01*
X149014883Y-76030671D01*
X149010989Y-76061499D01*
X148994825Y-76189455D01*
X111150500Y-76189455D01*
X111150500Y-74989455D01*
X135294825Y-74989455D01*
X135295637Y-74997737D01*
X135295637Y-74997741D01*
X135298381Y-75025725D01*
X135311255Y-75157025D01*
X135313881Y-75164920D01*
X135313882Y-75164923D01*
X135357266Y-75295340D01*
X135364402Y-75316791D01*
X135451624Y-75460812D01*
X135457412Y-75466805D01*
X135457413Y-75466807D01*
X135468732Y-75478528D01*
X135568586Y-75581929D01*
X135575555Y-75586490D01*
X135575557Y-75586491D01*
X135702503Y-75669563D01*
X135702506Y-75669564D01*
X135709475Y-75674125D01*
X135867289Y-75732815D01*
X135875543Y-75733916D01*
X135875546Y-75733917D01*
X136025928Y-75753982D01*
X136025932Y-75753982D01*
X136034183Y-75755083D01*
X136142053Y-75745266D01*
X136193570Y-75740578D01*
X136193572Y-75740578D01*
X136201864Y-75739823D01*
X136361997Y-75687793D01*
X136481103Y-75616791D01*
X136499472Y-75605841D01*
X136499473Y-75605840D01*
X136506623Y-75601578D01*
X136628554Y-75485465D01*
X136644934Y-75460812D01*
X136717120Y-75352163D01*
X136721731Y-75345223D01*
X136742915Y-75289455D01*
X145994825Y-75289455D01*
X145995637Y-75297737D01*
X145995637Y-75297741D01*
X145998204Y-75323916D01*
X146011255Y-75457025D01*
X146013881Y-75464920D01*
X146013882Y-75464923D01*
X146057431Y-75595836D01*
X146064402Y-75616791D01*
X146151624Y-75760812D01*
X146268586Y-75881929D01*
X146275555Y-75886490D01*
X146275557Y-75886491D01*
X146402503Y-75969563D01*
X146402506Y-75969564D01*
X146409475Y-75974125D01*
X146567289Y-76032815D01*
X146575543Y-76033916D01*
X146575546Y-76033917D01*
X146725928Y-76053982D01*
X146725932Y-76053982D01*
X146734183Y-76055083D01*
X146847516Y-76044769D01*
X146893570Y-76040578D01*
X146893572Y-76040578D01*
X146901864Y-76039823D01*
X147061997Y-75987793D01*
X147206623Y-75901578D01*
X147328554Y-75785465D01*
X147344934Y-75760812D01*
X147417120Y-75652163D01*
X147421731Y-75645223D01*
X147481521Y-75487823D01*
X147482828Y-75478528D01*
X147490400Y-75424646D01*
X163669500Y-75424646D01*
X163671124Y-75432286D01*
X163671124Y-75432287D01*
X163707108Y-75601578D01*
X163708856Y-75609803D01*
X163785849Y-75782730D01*
X163790438Y-75789046D01*
X163850720Y-75872017D01*
X163897112Y-75935871D01*
X163942824Y-75977030D01*
X164031979Y-76057307D01*
X164031984Y-76057311D01*
X164037784Y-76062533D01*
X164044544Y-76066436D01*
X164044547Y-76066438D01*
X164107244Y-76102635D01*
X164201716Y-76157179D01*
X164275626Y-76181194D01*
X164368609Y-76211406D01*
X164381744Y-76215674D01*
X164389511Y-76216490D01*
X164389514Y-76216491D01*
X164459116Y-76223806D01*
X164522808Y-76230500D01*
X164859666Y-76230500D01*
X164934166Y-76250462D01*
X164988704Y-76305000D01*
X165008666Y-76379500D01*
X164988509Y-76454336D01*
X164984491Y-76461253D01*
X164984489Y-76461257D01*
X164980144Y-76468738D01*
X164968730Y-76506424D01*
X164935971Y-76614585D01*
X164931105Y-76630650D01*
X164920630Y-76799501D01*
X164949280Y-76966233D01*
X164952667Y-76974194D01*
X164952668Y-76974196D01*
X165012129Y-77113938D01*
X165015518Y-77121902D01*
X165115791Y-77258158D01*
X165244720Y-77367692D01*
X165395389Y-77444627D01*
X165559717Y-77484838D01*
X165566335Y-77485249D01*
X165566338Y-77485249D01*
X165568096Y-77485358D01*
X165568102Y-77485358D01*
X165570388Y-77485500D01*
X165692363Y-77485500D01*
X165696640Y-77485001D01*
X165696646Y-77485001D01*
X165747530Y-77479068D01*
X165818037Y-77470848D01*
X165977061Y-77413125D01*
X166003431Y-77395836D01*
X166111303Y-77325112D01*
X166111304Y-77325111D01*
X166118540Y-77320367D01*
X166234885Y-77197550D01*
X166269508Y-77137943D01*
X166315510Y-77058745D01*
X166315511Y-77058742D01*
X166319856Y-77051262D01*
X166349320Y-76953982D01*
X166366387Y-76897632D01*
X166366388Y-76897629D01*
X166368895Y-76889350D01*
X166379370Y-76720499D01*
X166350720Y-76553767D01*
X166347085Y-76545223D01*
X166287871Y-76406062D01*
X166287870Y-76406060D01*
X166284482Y-76398098D01*
X166276921Y-76387823D01*
X166184209Y-76261842D01*
X166186695Y-76260012D01*
X166157859Y-76205815D01*
X166160530Y-76128733D01*
X166203330Y-76061530D01*
X166227438Y-76039823D01*
X166342888Y-75935871D01*
X166389281Y-75872017D01*
X166449562Y-75789046D01*
X166454151Y-75782730D01*
X166531144Y-75609803D01*
X166532893Y-75601578D01*
X166568876Y-75432287D01*
X166568876Y-75432286D01*
X166570500Y-75424646D01*
X166570500Y-75235354D01*
X166550436Y-75140960D01*
X166532768Y-75057836D01*
X166532767Y-75057833D01*
X166531144Y-75050197D01*
X166454151Y-74877270D01*
X166342888Y-74724129D01*
X166268544Y-74657189D01*
X166208021Y-74602693D01*
X166208016Y-74602689D01*
X166202216Y-74597467D01*
X166195456Y-74593564D01*
X166195453Y-74593562D01*
X166099117Y-74537943D01*
X166038284Y-74502821D01*
X165858256Y-74444326D01*
X165850489Y-74443510D01*
X165850486Y-74443509D01*
X165780884Y-74436194D01*
X165717192Y-74429500D01*
X164522808Y-74429500D01*
X164459116Y-74436194D01*
X164389514Y-74443509D01*
X164389511Y-74443510D01*
X164381744Y-74444326D01*
X164201716Y-74502821D01*
X164140883Y-74537943D01*
X164044547Y-74593562D01*
X164044544Y-74593564D01*
X164037784Y-74597467D01*
X164031984Y-74602689D01*
X164031979Y-74602693D01*
X163971456Y-74657189D01*
X163897112Y-74724129D01*
X163785849Y-74877270D01*
X163708856Y-75050197D01*
X163707233Y-75057833D01*
X163707232Y-75057836D01*
X163689564Y-75140960D01*
X163669500Y-75235354D01*
X163669500Y-75424646D01*
X147490400Y-75424646D01*
X147491498Y-75416835D01*
X147504955Y-75321088D01*
X147505249Y-75300000D01*
X147486481Y-75132676D01*
X147431108Y-74973668D01*
X147341884Y-74830879D01*
X147223242Y-74711406D01*
X147216212Y-74706945D01*
X147216210Y-74706943D01*
X147088112Y-74625650D01*
X147088110Y-74625649D01*
X147081079Y-74621187D01*
X147073233Y-74618393D01*
X146930304Y-74567498D01*
X146930301Y-74567497D01*
X146922462Y-74564706D01*
X146914199Y-74563721D01*
X146914196Y-74563720D01*
X146819685Y-74552450D01*
X146755273Y-74544769D01*
X146746995Y-74545639D01*
X146746993Y-74545639D01*
X146671547Y-74553569D01*
X146587821Y-74562369D01*
X146428431Y-74616630D01*
X146285022Y-74704856D01*
X146164724Y-74822661D01*
X146073515Y-74964190D01*
X146015927Y-75122409D01*
X146014884Y-75130668D01*
X146014883Y-75130671D01*
X146012601Y-75148740D01*
X145994825Y-75289455D01*
X136742915Y-75289455D01*
X136781521Y-75187823D01*
X136804955Y-75021088D01*
X136805249Y-75000000D01*
X136786481Y-74832676D01*
X136731108Y-74673668D01*
X136641884Y-74530879D01*
X136523242Y-74411406D01*
X136516212Y-74406945D01*
X136516210Y-74406943D01*
X136388112Y-74325650D01*
X136388110Y-74325649D01*
X136381079Y-74321187D01*
X136373233Y-74318393D01*
X136230304Y-74267498D01*
X136230301Y-74267497D01*
X136222462Y-74264706D01*
X136214199Y-74263721D01*
X136214196Y-74263720D01*
X136119685Y-74252450D01*
X136055273Y-74244769D01*
X136046995Y-74245639D01*
X136046993Y-74245639D01*
X135971547Y-74253569D01*
X135887821Y-74262369D01*
X135728431Y-74316630D01*
X135585022Y-74404856D01*
X135464724Y-74522661D01*
X135373515Y-74664190D01*
X135370667Y-74672016D01*
X135370666Y-74672017D01*
X135357954Y-74706943D01*
X135315927Y-74822409D01*
X135314884Y-74830668D01*
X135314883Y-74830671D01*
X135306998Y-74893094D01*
X135294825Y-74989455D01*
X111150500Y-74989455D01*
X111150500Y-73489455D01*
X114494825Y-73489455D01*
X114495637Y-73497737D01*
X114495637Y-73497741D01*
X114501152Y-73553982D01*
X114511255Y-73657025D01*
X114564402Y-73816791D01*
X114651624Y-73960812D01*
X114768586Y-74081929D01*
X114775555Y-74086490D01*
X114775557Y-74086491D01*
X114902503Y-74169563D01*
X114902506Y-74169564D01*
X114909475Y-74174125D01*
X115067289Y-74232815D01*
X115075543Y-74233916D01*
X115075546Y-74233917D01*
X115225928Y-74253982D01*
X115225932Y-74253982D01*
X115234183Y-74255083D01*
X115347516Y-74244769D01*
X115393570Y-74240578D01*
X115393572Y-74240578D01*
X115401864Y-74239823D01*
X115561997Y-74187793D01*
X115706623Y-74101578D01*
X115828554Y-73985465D01*
X115844934Y-73960812D01*
X115917120Y-73852163D01*
X115921731Y-73845223D01*
X115981521Y-73687823D01*
X116004955Y-73521088D01*
X116005249Y-73500000D01*
X115986481Y-73332676D01*
X115931108Y-73173668D01*
X115841884Y-73030879D01*
X115723242Y-72911406D01*
X115716212Y-72906945D01*
X115716210Y-72906943D01*
X115588112Y-72825650D01*
X115588110Y-72825649D01*
X115581079Y-72821187D01*
X115568779Y-72816807D01*
X115430304Y-72767498D01*
X115430301Y-72767497D01*
X115422462Y-72764706D01*
X115414199Y-72763721D01*
X115414196Y-72763720D01*
X115319685Y-72752450D01*
X115255273Y-72744769D01*
X115246995Y-72745639D01*
X115246993Y-72745639D01*
X115171547Y-72753569D01*
X115087821Y-72762369D01*
X114928431Y-72816630D01*
X114921335Y-72820996D01*
X114921334Y-72820996D01*
X114921185Y-72821088D01*
X114785022Y-72904856D01*
X114664724Y-73022661D01*
X114573515Y-73164190D01*
X114515927Y-73322409D01*
X114514884Y-73330668D01*
X114514883Y-73330671D01*
X114509165Y-73375934D01*
X114494825Y-73489455D01*
X111150500Y-73489455D01*
X111150500Y-72339455D01*
X137019825Y-72339455D01*
X137020637Y-72347737D01*
X137020637Y-72347741D01*
X137023381Y-72375725D01*
X137036255Y-72507025D01*
X137089402Y-72666791D01*
X137176624Y-72810812D01*
X137182412Y-72816805D01*
X137182413Y-72816807D01*
X137186547Y-72821088D01*
X137293586Y-72931929D01*
X137300555Y-72936490D01*
X137300557Y-72936491D01*
X137427503Y-73019563D01*
X137427506Y-73019564D01*
X137434475Y-73024125D01*
X137442285Y-73027029D01*
X137442286Y-73027030D01*
X137452636Y-73030879D01*
X137592289Y-73082815D01*
X137600543Y-73083916D01*
X137600546Y-73083917D01*
X137750928Y-73103982D01*
X137750932Y-73103982D01*
X137759183Y-73105083D01*
X137867053Y-73095266D01*
X137918570Y-73090578D01*
X137918572Y-73090578D01*
X137926864Y-73089823D01*
X138086997Y-73037793D01*
X138231623Y-72951578D01*
X138353554Y-72835465D01*
X138369934Y-72810812D01*
X138384124Y-72789455D01*
X153494825Y-72789455D01*
X153495637Y-72797737D01*
X153495637Y-72797741D01*
X153497936Y-72821187D01*
X153511255Y-72957025D01*
X153513881Y-72964920D01*
X153513882Y-72964923D01*
X153535418Y-73029662D01*
X153564402Y-73116791D01*
X153651624Y-73260812D01*
X153768586Y-73381929D01*
X153775555Y-73386490D01*
X153775557Y-73386491D01*
X153902503Y-73469563D01*
X153902506Y-73469564D01*
X153909475Y-73474125D01*
X154067289Y-73532815D01*
X154075543Y-73533916D01*
X154075546Y-73533917D01*
X154225928Y-73553982D01*
X154225932Y-73553982D01*
X154234183Y-73555083D01*
X154342053Y-73545266D01*
X154393570Y-73540578D01*
X154393572Y-73540578D01*
X154401864Y-73539823D01*
X154561997Y-73487793D01*
X154706623Y-73401578D01*
X154828554Y-73285465D01*
X154844934Y-73260812D01*
X154917120Y-73152163D01*
X154921731Y-73145223D01*
X154981521Y-72987823D01*
X155004955Y-72821088D01*
X155005249Y-72800000D01*
X154986481Y-72632676D01*
X154931108Y-72473668D01*
X154841884Y-72330879D01*
X154723242Y-72211406D01*
X154716212Y-72206945D01*
X154716210Y-72206943D01*
X154588112Y-72125650D01*
X154588110Y-72125649D01*
X154581079Y-72121187D01*
X154573233Y-72118393D01*
X154430304Y-72067498D01*
X154430301Y-72067497D01*
X154422462Y-72064706D01*
X154414199Y-72063721D01*
X154414196Y-72063720D01*
X154319685Y-72052450D01*
X154255273Y-72044769D01*
X154246995Y-72045639D01*
X154246993Y-72045639D01*
X154171547Y-72053569D01*
X154087821Y-72062369D01*
X153928431Y-72116630D01*
X153921335Y-72120996D01*
X153921334Y-72120996D01*
X153807610Y-72190960D01*
X153785022Y-72204856D01*
X153664724Y-72322661D01*
X153573515Y-72464190D01*
X153515927Y-72622409D01*
X153514884Y-72630668D01*
X153514883Y-72630671D01*
X153511318Y-72658891D01*
X153494825Y-72789455D01*
X138384124Y-72789455D01*
X138442120Y-72702163D01*
X138446731Y-72695223D01*
X138506521Y-72537823D01*
X138529955Y-72371088D01*
X138530249Y-72350000D01*
X138511481Y-72182676D01*
X138456108Y-72023668D01*
X138366884Y-71880879D01*
X138248242Y-71761406D01*
X138241212Y-71756945D01*
X138241210Y-71756943D01*
X138113112Y-71675650D01*
X138113110Y-71675649D01*
X138106079Y-71671187D01*
X138098233Y-71668393D01*
X137955304Y-71617498D01*
X137955301Y-71617497D01*
X137947462Y-71614706D01*
X137939199Y-71613721D01*
X137939196Y-71613720D01*
X137844685Y-71602450D01*
X137780273Y-71594769D01*
X137771995Y-71595639D01*
X137771993Y-71595639D01*
X137696547Y-71603569D01*
X137612821Y-71612369D01*
X137453431Y-71666630D01*
X137310022Y-71754856D01*
X137189724Y-71872661D01*
X137098515Y-72014190D01*
X137040927Y-72172409D01*
X137039884Y-72180668D01*
X137039883Y-72180671D01*
X137036092Y-72210685D01*
X137019825Y-72339455D01*
X111150500Y-72339455D01*
X111150500Y-69014455D01*
X156469825Y-69014455D01*
X156470637Y-69022737D01*
X156470637Y-69022741D01*
X156478102Y-69098868D01*
X156486255Y-69182025D01*
X156539402Y-69341791D01*
X156626624Y-69485812D01*
X156743586Y-69606929D01*
X156750555Y-69611490D01*
X156750557Y-69611491D01*
X156877503Y-69694563D01*
X156877506Y-69694564D01*
X156884475Y-69699125D01*
X157042289Y-69757815D01*
X157050543Y-69758916D01*
X157050546Y-69758917D01*
X157200928Y-69778982D01*
X157200932Y-69778982D01*
X157209183Y-69780083D01*
X157317053Y-69770266D01*
X157368570Y-69765578D01*
X157368572Y-69765578D01*
X157376864Y-69764823D01*
X157536997Y-69712793D01*
X157681623Y-69626578D01*
X157803554Y-69510465D01*
X157819934Y-69485812D01*
X157892120Y-69377163D01*
X157896731Y-69370223D01*
X157956521Y-69212823D01*
X157972537Y-69098868D01*
X158002674Y-69027872D01*
X158064271Y-68981455D01*
X158106583Y-68971219D01*
X158168571Y-68965578D01*
X158168574Y-68965577D01*
X158176864Y-68964823D01*
X158336997Y-68912793D01*
X158384375Y-68884550D01*
X158458589Y-68863550D01*
X158533360Y-68882470D01*
X158542257Y-68887858D01*
X158552501Y-68894562D01*
X158552506Y-68894564D01*
X158559475Y-68899125D01*
X158567285Y-68902029D01*
X158567286Y-68902030D01*
X158584756Y-68908527D01*
X158717289Y-68957815D01*
X158725543Y-68958916D01*
X158725546Y-68958917D01*
X158875928Y-68978982D01*
X158875932Y-68978982D01*
X158884183Y-68980083D01*
X158992053Y-68970266D01*
X159043570Y-68965578D01*
X159043572Y-68965578D01*
X159051864Y-68964823D01*
X159211997Y-68912793D01*
X159356623Y-68826578D01*
X159478554Y-68710465D01*
X159571731Y-68570223D01*
X159631521Y-68412823D01*
X159654955Y-68246088D01*
X159655249Y-68225000D01*
X159636481Y-68057676D01*
X159581108Y-67898668D01*
X159491884Y-67755879D01*
X159373242Y-67636406D01*
X159366212Y-67631945D01*
X159366210Y-67631943D01*
X159238112Y-67550650D01*
X159238110Y-67550649D01*
X159231079Y-67546187D01*
X159223233Y-67543393D01*
X159080304Y-67492498D01*
X159080301Y-67492497D01*
X159072462Y-67489706D01*
X159064199Y-67488721D01*
X159064196Y-67488720D01*
X158969685Y-67477450D01*
X158905273Y-67469769D01*
X158896995Y-67470639D01*
X158896993Y-67470639D01*
X158821547Y-67478569D01*
X158737821Y-67487369D01*
X158578431Y-67541630D01*
X158571342Y-67545991D01*
X158571336Y-67545994D01*
X158541183Y-67564545D01*
X158467269Y-67586580D01*
X158392241Y-67568706D01*
X158383270Y-67563443D01*
X158363112Y-67550650D01*
X158363110Y-67550649D01*
X158356079Y-67546187D01*
X158348233Y-67543393D01*
X158205304Y-67492498D01*
X158205301Y-67492497D01*
X158197462Y-67489706D01*
X158189199Y-67488721D01*
X158189196Y-67488720D01*
X158094685Y-67477450D01*
X158030273Y-67469769D01*
X158021995Y-67470639D01*
X158021993Y-67470639D01*
X157946547Y-67478569D01*
X157862821Y-67487369D01*
X157703431Y-67541630D01*
X157696335Y-67545996D01*
X157696334Y-67545996D01*
X157667975Y-67563443D01*
X157560022Y-67629856D01*
X157439724Y-67747661D01*
X157348515Y-67889190D01*
X157290927Y-68047409D01*
X157289883Y-68055670D01*
X157289883Y-68055672D01*
X157278077Y-68149134D01*
X157248936Y-68220545D01*
X157187993Y-68267818D01*
X157145827Y-68278645D01*
X157062821Y-68287369D01*
X156903431Y-68341630D01*
X156896335Y-68345996D01*
X156896334Y-68345996D01*
X156787709Y-68412823D01*
X156760022Y-68429856D01*
X156639724Y-68547661D01*
X156548515Y-68689190D01*
X156490927Y-68847409D01*
X156469825Y-69014455D01*
X111150500Y-69014455D01*
X111150500Y-62043247D01*
X111152334Y-62019938D01*
X111153658Y-62011579D01*
X111155492Y-62000000D01*
X111153658Y-61988420D01*
X111153658Y-61985395D01*
X111152698Y-61968497D01*
X113744637Y-61968497D01*
X113760205Y-62251370D01*
X113761233Y-62256538D01*
X113773633Y-62318875D01*
X113815474Y-62529226D01*
X113909342Y-62796524D01*
X113911764Y-62801187D01*
X113911766Y-62801191D01*
X114037510Y-63043259D01*
X114037514Y-63043266D01*
X114039936Y-63047928D01*
X114204651Y-63278424D01*
X114208281Y-63282230D01*
X114208285Y-63282234D01*
X114327701Y-63407414D01*
X114400199Y-63483412D01*
X114622680Y-63658801D01*
X114682235Y-63693393D01*
X114863096Y-63798446D01*
X114863101Y-63798449D01*
X114867654Y-63801093D01*
X115130232Y-63907448D01*
X115270315Y-63942245D01*
X115400055Y-63974473D01*
X115400059Y-63974474D01*
X115405177Y-63975745D01*
X115410418Y-63976282D01*
X115410424Y-63976283D01*
X115643003Y-64000112D01*
X115646790Y-64000500D01*
X115822170Y-64000500D01*
X116032593Y-63985601D01*
X116309547Y-63925975D01*
X116575337Y-63827920D01*
X116579967Y-63825422D01*
X116579971Y-63825420D01*
X116820029Y-63695892D01*
X116820032Y-63695890D01*
X116824660Y-63693393D01*
X117052540Y-63525078D01*
X117056289Y-63521387D01*
X117056293Y-63521384D01*
X117152045Y-63427123D01*
X117254430Y-63326334D01*
X117426304Y-63101126D01*
X117564730Y-62853947D01*
X117666948Y-62589730D01*
X117730918Y-62313747D01*
X117736321Y-62251370D01*
X117754908Y-62036760D01*
X117754908Y-62036756D01*
X117755363Y-62031503D01*
X117751895Y-61968497D01*
X163744637Y-61968497D01*
X163760205Y-62251370D01*
X163761233Y-62256538D01*
X163773633Y-62318875D01*
X163815474Y-62529226D01*
X163909342Y-62796524D01*
X163911764Y-62801187D01*
X163911766Y-62801191D01*
X164037510Y-63043259D01*
X164037514Y-63043266D01*
X164039936Y-63047928D01*
X164204651Y-63278424D01*
X164208281Y-63282230D01*
X164208285Y-63282234D01*
X164327701Y-63407414D01*
X164400199Y-63483412D01*
X164622680Y-63658801D01*
X164682235Y-63693393D01*
X164863096Y-63798446D01*
X164863101Y-63798449D01*
X164867654Y-63801093D01*
X165130232Y-63907448D01*
X165270315Y-63942245D01*
X165400055Y-63974473D01*
X165400059Y-63974474D01*
X165405177Y-63975745D01*
X165410418Y-63976282D01*
X165410424Y-63976283D01*
X165643003Y-64000112D01*
X165646790Y-64000500D01*
X165822170Y-64000500D01*
X166032593Y-63985601D01*
X166309547Y-63925975D01*
X166575337Y-63827920D01*
X166579967Y-63825422D01*
X166579971Y-63825420D01*
X166820029Y-63695892D01*
X166820032Y-63695890D01*
X166824660Y-63693393D01*
X167052540Y-63525078D01*
X167056289Y-63521387D01*
X167056293Y-63521384D01*
X167152045Y-63427123D01*
X167254430Y-63326334D01*
X167426304Y-63101126D01*
X167564730Y-62853947D01*
X167666948Y-62589730D01*
X167730918Y-62313747D01*
X167736321Y-62251370D01*
X167754908Y-62036760D01*
X167754908Y-62036756D01*
X167755363Y-62031503D01*
X167739795Y-61748630D01*
X167728431Y-61691501D01*
X167685556Y-61475950D01*
X167685552Y-61475934D01*
X167684526Y-61470774D01*
X167643408Y-61353685D01*
X167592402Y-61208442D01*
X167592402Y-61208441D01*
X167590658Y-61203476D01*
X167563381Y-61150965D01*
X167462490Y-60956741D01*
X167462486Y-60956734D01*
X167460064Y-60952072D01*
X167295349Y-60721576D01*
X167291719Y-60717770D01*
X167291715Y-60717766D01*
X167103440Y-60520403D01*
X167099801Y-60516588D01*
X166877320Y-60341199D01*
X166670704Y-60221187D01*
X166636904Y-60201554D01*
X166636899Y-60201551D01*
X166632346Y-60198907D01*
X166369768Y-60092552D01*
X166200084Y-60050402D01*
X166099945Y-60025527D01*
X166099941Y-60025526D01*
X166094823Y-60024255D01*
X166089582Y-60023718D01*
X166089576Y-60023717D01*
X165856997Y-59999888D01*
X165853210Y-59999500D01*
X165677830Y-59999500D01*
X165467407Y-60014399D01*
X165190453Y-60074025D01*
X164924663Y-60172080D01*
X164920033Y-60174578D01*
X164920029Y-60174580D01*
X164679971Y-60304108D01*
X164675340Y-60306607D01*
X164671109Y-60309732D01*
X164671106Y-60309734D01*
X164512506Y-60426878D01*
X164447460Y-60474922D01*
X164443711Y-60478613D01*
X164443707Y-60478616D01*
X164408450Y-60513324D01*
X164245570Y-60673666D01*
X164242380Y-60677846D01*
X164242379Y-60677847D01*
X164141857Y-60809562D01*
X164073696Y-60898874D01*
X163935270Y-61146053D01*
X163833052Y-61410270D01*
X163769082Y-61686253D01*
X163768628Y-61691494D01*
X163768627Y-61691501D01*
X163745092Y-61963240D01*
X163744637Y-61968497D01*
X117751895Y-61968497D01*
X117739795Y-61748630D01*
X117728431Y-61691501D01*
X117685556Y-61475950D01*
X117685552Y-61475934D01*
X117684526Y-61470774D01*
X117643408Y-61353685D01*
X117592402Y-61208442D01*
X117592402Y-61208441D01*
X117590658Y-61203476D01*
X117563381Y-61150965D01*
X117462490Y-60956741D01*
X117462486Y-60956734D01*
X117460064Y-60952072D01*
X117415317Y-60889455D01*
X135694825Y-60889455D01*
X135695637Y-60897737D01*
X135695637Y-60897741D01*
X135701422Y-60956741D01*
X135711255Y-61057025D01*
X135713881Y-61064920D01*
X135713882Y-61064923D01*
X135759973Y-61203476D01*
X135764402Y-61216791D01*
X135851624Y-61360812D01*
X135968586Y-61481929D01*
X135975555Y-61486490D01*
X135975557Y-61486491D01*
X136102503Y-61569563D01*
X136102506Y-61569564D01*
X136109475Y-61574125D01*
X136117285Y-61577029D01*
X136117286Y-61577030D01*
X136167588Y-61595737D01*
X136267289Y-61632815D01*
X136275543Y-61633916D01*
X136275546Y-61633917D01*
X136425928Y-61653982D01*
X136425932Y-61653982D01*
X136434183Y-61655083D01*
X136542053Y-61645266D01*
X136593570Y-61640578D01*
X136593572Y-61640578D01*
X136601864Y-61639823D01*
X136761997Y-61587793D01*
X136906623Y-61501578D01*
X137028554Y-61385465D01*
X137044934Y-61360812D01*
X137117120Y-61252163D01*
X137121731Y-61245223D01*
X137181521Y-61087823D01*
X137204955Y-60921088D01*
X137205249Y-60900000D01*
X137186481Y-60732676D01*
X137131108Y-60573668D01*
X137041884Y-60430879D01*
X136923242Y-60311406D01*
X136916212Y-60306945D01*
X136916210Y-60306943D01*
X136788112Y-60225650D01*
X136788110Y-60225649D01*
X136781079Y-60221187D01*
X136773233Y-60218393D01*
X136630304Y-60167498D01*
X136630301Y-60167497D01*
X136622462Y-60164706D01*
X136614199Y-60163721D01*
X136614196Y-60163720D01*
X136519685Y-60152450D01*
X136455273Y-60144769D01*
X136446995Y-60145639D01*
X136446993Y-60145639D01*
X136371547Y-60153569D01*
X136287821Y-60162369D01*
X136128431Y-60216630D01*
X135985022Y-60304856D01*
X135864724Y-60422661D01*
X135773515Y-60564190D01*
X135715927Y-60722409D01*
X135714884Y-60730668D01*
X135714883Y-60730671D01*
X135706998Y-60793094D01*
X135694825Y-60889455D01*
X117415317Y-60889455D01*
X117295349Y-60721576D01*
X117291719Y-60717770D01*
X117291715Y-60717766D01*
X117103440Y-60520403D01*
X117099801Y-60516588D01*
X116877320Y-60341199D01*
X116670704Y-60221187D01*
X116636904Y-60201554D01*
X116636899Y-60201551D01*
X116632346Y-60198907D01*
X116369768Y-60092552D01*
X116200084Y-60050402D01*
X116099945Y-60025527D01*
X116099941Y-60025526D01*
X116094823Y-60024255D01*
X116089582Y-60023718D01*
X116089576Y-60023717D01*
X115856997Y-59999888D01*
X115853210Y-59999500D01*
X115677830Y-59999500D01*
X115467407Y-60014399D01*
X115190453Y-60074025D01*
X114924663Y-60172080D01*
X114920033Y-60174578D01*
X114920029Y-60174580D01*
X114679971Y-60304108D01*
X114675340Y-60306607D01*
X114671109Y-60309732D01*
X114671106Y-60309734D01*
X114512506Y-60426878D01*
X114447460Y-60474922D01*
X114443711Y-60478613D01*
X114443707Y-60478616D01*
X114408450Y-60513324D01*
X114245570Y-60673666D01*
X114242380Y-60677846D01*
X114242379Y-60677847D01*
X114141857Y-60809562D01*
X114073696Y-60898874D01*
X113935270Y-61146053D01*
X113833052Y-61410270D01*
X113769082Y-61686253D01*
X113768628Y-61691494D01*
X113768627Y-61691501D01*
X113745092Y-61963240D01*
X113744637Y-61968497D01*
X111152698Y-61968497D01*
X111152233Y-61960302D01*
X111166338Y-61637250D01*
X111167719Y-61605620D01*
X111168851Y-61592676D01*
X111171294Y-61574125D01*
X111219528Y-61207754D01*
X111221785Y-61194954D01*
X111287675Y-60897741D01*
X111305816Y-60815914D01*
X111309179Y-60803361D01*
X111333616Y-60725856D01*
X111425929Y-60433077D01*
X111430374Y-60420866D01*
X111476013Y-60310685D01*
X111578946Y-60062181D01*
X111584439Y-60050402D01*
X111763717Y-59706014D01*
X111770216Y-59694757D01*
X111978811Y-59367328D01*
X111986267Y-59356680D01*
X112222626Y-59048652D01*
X112230980Y-59038695D01*
X112493281Y-58752443D01*
X112502443Y-58743281D01*
X112788697Y-58480979D01*
X112798652Y-58472626D01*
X113106680Y-58236267D01*
X113117328Y-58228811D01*
X113444757Y-58020216D01*
X113456014Y-58013717D01*
X113800402Y-57834439D01*
X113812183Y-57828945D01*
X114170871Y-57680372D01*
X114183077Y-57675929D01*
X114553365Y-57559178D01*
X114565914Y-57555816D01*
X114944954Y-57471785D01*
X114957754Y-57469528D01*
X115001698Y-57463743D01*
X115342683Y-57418850D01*
X115355620Y-57417719D01*
X115710306Y-57402233D01*
X115735395Y-57403658D01*
X115738420Y-57403658D01*
X115750000Y-57405492D01*
X115769941Y-57402334D01*
X115793247Y-57400500D01*
X165706753Y-57400500D01*
X165730059Y-57402334D01*
G37*
%TD.AperFunction*%
%TD*%
M02*
