M48
; DRILL file {KiCad (6.0.4)} date Sat Nov 12 18:52:58 2022
; FORMAT={-:-/ absolute / metric / decimal}
; #@! TF.CreationDate,2022-11-12T18:52:58-06:00
; #@! TF.GenerationSoftware,Kicad,Pcbnew,(6.0.4)
; #@! TF.FileFunction,MixedPlating,1,4
FMAT,2
METRIC
; #@! TA.AperFunction,Plated,PTH,ViaDrill
T1C0.300
; #@! TA.AperFunction,Plated,PTH,ViaDrill
T2C0.400
; #@! TA.AperFunction,Plated,PTH,ComponentDrill
T3C0.600
; #@! TA.AperFunction,Plated,PTH,ComponentDrill
T4C0.890
; #@! TA.AperFunction,Plated,PTH,ComponentDrill
T5C2.010
; #@! TA.AperFunction,NonPlated,NPTH,ComponentDrill
T6C0.650
; #@! TA.AperFunction,NonPlated,NPTH,ComponentDrill
T7C3.200
%
G90
G05
T1
X114.25Y-73.5
X115.25Y-73.5
X116.25Y-87.8
X117.2Y-74.8
X118.55Y-99.4
X118.55Y-100.25
X120.45Y-86.825
X120.45Y-87.8
X121.25Y-91.5
X121.25Y-92.5
X121.75Y-103.45
X122.75Y-95.0
X123.3Y-102.75
X123.95Y-90.9
X124.25Y-94.6
X124.25Y-95.45
X125.1Y-67.35
X125.45Y-107.2
X125.75Y-87.8
X126.45Y-70.35
X126.75Y-80.4
X126.75Y-81.7
X126.75Y-83.1
X126.8Y-74.35
X126.8Y-87.8
X127.3Y-58.1
X127.5Y-98.45
X127.7Y-81.05
X127.7Y-82.4
X127.7Y-83.75
X128.4Y-97.2
X128.55Y-67.35
X129.35Y-77.25
X129.4Y-102.7
X129.55Y-109.7
X129.85Y-58.1
X130.35Y-97.6
X130.4Y-105.9
X130.95Y-89.35
X131.075Y-88.325
X131.1Y-58.1
X131.35Y-97.6
X131.35Y-99.1
X131.75Y-85.0
X132.15Y-67.35
X132.25Y-79.8
X132.25Y-106.0
X132.35Y-99.1
X132.45Y-85.9
X133.15Y-86.5
X133.15Y-100.8
X134.1Y-79.8
X134.2Y-75.0
X134.85Y-59.7
X135.55Y-67.35
X136.05Y-75.0
X136.05Y-85.5
X136.45Y-60.9
X137.362Y-96.938
X137.362Y-97.837
X137.775Y-72.35
X137.95Y-77.8
X137.95Y-79.0
X138.262Y-96.938
X138.262Y-97.837
X138.35Y-107.15
X138.5Y-76.6
X138.55Y-104.5
X138.75Y-78.25
X139.162Y-96.938
X139.162Y-97.837
X139.75Y-78.25
X140.5Y-77.6
X140.9Y-72.6
X141.3Y-78.25
X141.95Y-91.075
X141.95Y-92.2
X142.3Y-78.25
X142.75Y-104.5
X143.05Y-82.3
X143.2Y-78.0
X143.45Y-77.1
X144.75Y-85.2
X145.725Y-85.225
X146.75Y-75.3
X148.85Y-70.9
X149.15Y-71.7
X149.647Y-85.248
X149.65Y-86.1
X149.65Y-86.95
X149.65Y-84.398
X149.681Y-105.45
X149.75Y-76.2
X150.4Y-93.15
X150.75Y-88.3
X151.25Y-69.0
X151.85Y-83.65
X152.25Y-84.5
X152.35Y-69.0
X152.75Y-76.8
X153.1Y-96.25
X153.731Y-100.7
X153.75Y-76.8
X154.05Y-105.45
X154.25Y-72.8
X154.25Y-73.9
X154.65Y-82.7
X154.65Y-83.65
X154.75Y-97.4
X154.85Y-92.7
X154.85Y-93.85
X154.95Y-70.8
X155.2Y-105.45
X155.3Y-109.4
X155.45Y-80.7
X155.85Y-70.8
X155.85Y-93.25
X156.45Y-81.1
X157.15Y-70.1
X157.225Y-69.025
X157.45Y-86.25
X158.025Y-68.225
X158.45Y-67.1
X158.9Y-68.225
X159.45Y-86.25
X161.48Y-77.235
X162.1Y-79.2
X162.9Y-76.4
X162.95Y-82.9
X163.25Y-75.6
X163.3Y-83.7
X164.025Y-69.875
X165.45Y-86.0
X165.5Y-73.25
T2
X113.25Y-67.0
X113.25Y-69.5
X113.25Y-72.0
X113.25Y-74.5
X113.25Y-77.0
X113.25Y-79.5
X113.25Y-82.0
X113.25Y-84.5
X113.25Y-87.0
X113.25Y-89.5
X113.25Y-92.0
X113.25Y-94.5
X113.25Y-97.0
X113.25Y-99.5
X113.25Y-102.0
X113.25Y-104.5
X113.25Y-107.0
X113.25Y-109.5
X113.25Y-112.0
X113.25Y-114.5
X113.25Y-117.0
X115.75Y-67.0
X115.75Y-69.5
X115.75Y-82.0
X115.75Y-84.5
X115.75Y-89.5
X115.75Y-92.0
X115.75Y-94.5
X115.75Y-97.0
X115.75Y-99.5
X115.75Y-102.0
X115.75Y-104.5
X115.75Y-107.0
X115.75Y-109.5
X115.75Y-112.0
X115.75Y-114.5
X115.75Y-117.0
X118.25Y-67.0
X118.25Y-69.5
X118.25Y-74.5
X118.25Y-82.0
X118.25Y-84.5
X118.25Y-104.5
X118.25Y-107.0
X118.25Y-109.5
X118.25Y-112.0
X118.25Y-114.5
X118.25Y-117.0
X120.75Y-59.5
X120.75Y-62.0
X120.75Y-64.5
X120.75Y-67.0
X120.75Y-69.5
X120.75Y-74.5
X120.75Y-84.5
X120.75Y-107.0
X120.75Y-109.5
X123.25Y-59.5
X123.25Y-64.5
X123.25Y-74.5
X123.25Y-107.0
X123.25Y-109.5
X123.25Y-112.0
X123.25Y-124.5
X125.75Y-59.5
X125.75Y-64.5
X125.75Y-109.5
X125.75Y-112.0
X125.75Y-117.0
X125.75Y-119.5
X125.75Y-122.0
X125.75Y-124.5
X128.25Y-117.0
X128.25Y-119.5
X128.25Y-122.0
X128.25Y-124.5
X130.75Y-92.0
X130.75Y-94.5
X130.75Y-117.0
X130.75Y-119.5
X130.75Y-122.0
X130.75Y-124.5
X133.25Y-92.0
X133.25Y-94.5
X133.25Y-109.5
X133.25Y-112.0
X133.25Y-124.5
X135.75Y-62.0
X135.75Y-64.5
X135.75Y-92.0
X135.75Y-94.5
X135.75Y-97.0
X135.75Y-107.0
X135.75Y-109.5
X138.25Y-59.5
X138.25Y-62.0
X138.25Y-64.5
X138.25Y-92.0
X138.25Y-94.5
X138.25Y-112.0
X138.25Y-114.5
X138.25Y-117.0
X138.25Y-119.5
X138.25Y-122.0
X138.25Y-124.5
X140.75Y-59.5
X140.75Y-64.5
X140.75Y-89.5
X140.75Y-112.0
X140.75Y-114.5
X140.75Y-117.0
X140.75Y-119.5
X140.75Y-122.0
X140.75Y-124.5
X143.25Y-59.5
X143.25Y-62.0
X143.25Y-89.5
X143.25Y-109.5
X143.25Y-112.0
X143.25Y-114.5
X143.25Y-117.0
X143.25Y-119.5
X143.25Y-122.0
X143.25Y-124.5
X145.75Y-62.0
X145.75Y-64.5
X145.75Y-89.5
X145.75Y-94.5
X145.75Y-97.0
X145.75Y-99.5
X145.75Y-109.5
X148.25Y-62.0
X148.25Y-64.5
X148.25Y-94.5
X148.25Y-97.0
X148.25Y-99.5
X148.25Y-102.0
X148.25Y-109.5
X148.25Y-112.0
X148.25Y-124.5
X150.75Y-62.0
X150.75Y-64.5
X150.75Y-94.5
X150.75Y-97.0
X150.75Y-99.5
X150.75Y-102.0
X150.75Y-109.5
X150.75Y-112.0
X150.75Y-117.0
X150.75Y-119.5
X150.75Y-122.0
X150.75Y-124.5
X153.25Y-62.0
X153.25Y-117.0
X153.25Y-119.5
X153.25Y-122.0
X153.25Y-124.5
X155.75Y-62.0
X155.75Y-77.0
X155.75Y-97.0
X155.75Y-99.5
X155.75Y-102.0
X155.75Y-117.0
X155.75Y-119.5
X155.75Y-122.0
X155.75Y-124.5
X158.25Y-59.5
X158.25Y-62.0
X158.25Y-64.5
X158.25Y-74.5
X158.25Y-77.0
X158.25Y-89.5
X158.25Y-92.0
X158.25Y-94.5
X158.25Y-97.0
X158.25Y-99.5
X158.25Y-102.0
X158.25Y-104.5
X158.25Y-109.5
X158.25Y-112.0
X158.25Y-124.5
X160.75Y-59.5
X160.75Y-62.0
X160.75Y-64.5
X160.75Y-67.0
X160.75Y-69.5
X160.75Y-72.0
X160.75Y-74.5
X160.75Y-87.0
X160.75Y-89.5
X160.75Y-92.0
X160.75Y-94.5
X160.75Y-104.5
X160.75Y-109.5
X163.25Y-67.0
X163.25Y-72.0
X163.25Y-87.0
X163.25Y-89.5
X163.25Y-92.0
X163.25Y-104.5
X163.25Y-109.5
X163.25Y-112.0
X163.25Y-114.5
X163.25Y-117.0
X165.75Y-67.0
X165.75Y-72.0
X165.75Y-87.0
X165.75Y-89.5
X165.75Y-92.0
X165.75Y-94.5
X165.75Y-104.5
X165.75Y-109.5
X165.75Y-112.0
X165.75Y-114.5
X165.75Y-117.0
X168.25Y-67.0
X168.25Y-69.5
X168.25Y-72.0
X168.25Y-87.0
X168.25Y-89.5
X168.25Y-92.0
X168.25Y-94.5
X168.25Y-97.0
X168.25Y-99.5
X168.25Y-102.0
X168.25Y-104.5
X168.25Y-109.5
X168.25Y-112.0
X168.25Y-114.5
X168.25Y-117.0
T4
X128.25Y-113.5
X130.79Y-113.5
X153.25Y-113.6
X155.79Y-113.6
T5
X123.17Y-118.58
X133.33Y-118.58
X148.17Y-118.68
X158.33Y-118.68
T6
X165.65Y-76.76
X165.65Y-82.54
T7
X115.75Y-62.0
X115.75Y-122.0
X165.75Y-62.0
X165.75Y-122.0
T3
G00X164.57Y-75.33
M15
G01X165.67Y-75.33
M16
G05
G00X164.57Y-83.97
M15
G01X165.67Y-83.97
M16
G05
G00X169.0Y-75.33
M15
G01X169.6Y-75.33
M16
G05
G00X169.0Y-83.97
M15
G01X169.6Y-83.97
M16
G05
T0
M30
